<svg xmlns="http://www.w3.org/2000/svg" x="0px" y="0px"
width="192mm" height="192mm"
viewBox="0 0 192 192"
style=" fill:#666666;"><g fill="none" fill-rule="nonzero" stroke="none" stroke-width="1" stroke-linecap="butt" stroke-linejoin="miter" stroke-miterlimit="10" stroke-dasharray="" stroke-dashoffset="0" font-family="none" font-weight="normal" font-size="none" text-anchor="inherit" style="mix-blend-mode: normal"><path d="M0,192v-192h192v192z" fill="none"></path><path d="" fill="#666666"></path><g fill="#666666"><path d="M95.44778,1.75475c-5.23424,0 -32.44936,0.91583 -54.37226,18.93117c-0.29724,0.23924 -0.57544,0.53058 -0.79293,0.84957c-5.19799,7.61937 -7.53418,24.82989 -9.28859,42.29426c-0.02175,0.20299 -0.04214,0.4062 -0.05664,0.59469c-2.39963,1.01495 -4.44606,3.40914 -4.44606,6.56998l1.23187,35.83755c0,2.88535 2.20219,6.05707 5.50802,6.79653c1.93565,8.66331 8.25473,36.39623 11.28508,42.46416c3.85681,7.71362 15.75379,24.6764 27.17197,30.86759c6.25643,3.13184 20.67041,3.28499 23.49052,3.28499c3.39283,0 20.59043,-0.16663 25.61443,-3.32747c11.04844,-5.76346 23.29614,-23.20088 27.0587,-30.726c3.07385,-5.76346 8.02251,-32.53353 9.78417,-42.40753c3.20434,-0.17399 6.64078,-2.96873 6.64078,-6.79653l1.23187,-36.12074c0,-2.55912 -1.72813,-5.34751 -4.41775,-6.45671c-0.0435,-0.49298 -0.09085,-1.01348 -0.1416,-1.5717c-0.9787,-11.52692 -2.81229,-32.9975 -9.38771,-41.50132c-0.18848,-0.24649 -0.40518,-0.45559 -0.63717,-0.65133c-21.9229,-18.01534 -49.15218,-18.93117 -54.38642,-18.93117l-0.42479,0.01416zM119.4622,24.69305c0,0 7.42363,1.40269 12.68686,5.59298c3.76256,3.81331 8.28327,9.51515 8.28327,9.51515l-1.13276,45.83411l4.88501,14.85326c-0.68872,2.0444 -1.8746,9.53757 -3.75225,12.20543c-1.87766,2.66062 -13.91873,25.89762 -13.91873,25.89762c0,0 -4.2706,9.36121 -2.39294,17.74178c1.28319,5.9882 0.50974,10.26559 0.50974,10.26559l-3.36995,3.82305c-0.76121,0.76121 -1.89385,1.13276 -2.64781,1.13276c-0.36973,0 -0.74887,-0.3823 -1.1186,-0.3823l-6.76822,-3.05844h-27.07285l-6.76822,3.04428c-0.37698,0.38423 -0.76302,0.39646 -1.13276,0.39646c-1.13094,0 -1.87244,-0.39295 -2.63365,-1.14691l-3.38411,-3.80889c0,0 -0.96635,-5.11926 -0.21239,-10.83197c1.87766,-8.38058 -1.67082,-17.17541 -1.67081,-17.17541c0,0 -13.90288,-23.23701 -15.78778,-25.89762c-1.87766,-2.29088 -4.60182,-11.27091 -4.60182,-11.27091l6.45671,-15.84442l-1.1186,-45.77748c0,0 3.75792,-5.70909 8.65142,-9.51515c4.51652,-3.42908 12.84261,-4.37527 12.84261,-4.37527l4.58766,33.64284c0,0 0.99116,5.65993 0.99116,6.42839c0,0.76121 4.65846,3.10092 4.65846,3.10092l24.46752,-0.02832c0,0 4.67261,-2.32555 4.67261,-3.08676c0,-0.37698 0.96284,-6.42839 0.96284,-6.42839zM135.67476,95.85841c-0.24909,0.0384 -0.52911,0.13502 -0.8354,0.33983c-4.08879,1.22519 -15.52656,6.5437 -26.97374,7.36291c-2.86361,1.23244 -0.82125,2.46374 -0.82125,2.46374c0,0 2.45162,4.08257 3.27082,4.48855c0.81921,1.23244 2.44959,1.23187 2.44959,1.23187l13.08333,-0.82125c0,0 2.46091,0.00747 4.09208,-1.21771c2.0444,-0.81921 8.99249,-5.33267 12.26208,-7.37707c1.22519,-0.81196 0,-2.03896 0,-2.03896l-5.30979,-4.09208c0,0 -0.47044,-0.45503 -1.21771,-0.33983zM55.90046,96.26903c-0.74728,-0.1152 -1.20355,0.35399 -1.20355,0.35399l-5.30979,4.07792c0,0 -1.22519,1.23391 0,2.05312c3.26959,2.0444 10.21768,6.52954 12.26208,7.34874c1.63842,1.22519 4.09208,1.23187 4.09208,1.23187l13.08332,0.82125c0,0 2.041,-0.00408 2.86021,-1.6425c0.81921,-0.40598 3.27082,-4.48855 3.27082,-4.48855c0.00001,0.00001 2.04497,-1.23391 -1.23187,-2.05312c-11.44717,-0.81921 -22.88494,-6.12356 -26.97374,-7.34874c-0.3063,-0.2048 -0.60047,-0.31559 -0.84957,-0.35399z"></path></g><path d="M0,192v-192h192v192z" fill="none"></path><path d="M0,192v-192h192v192z" fill="none"></path><path d="M0,192v-192h192v192z" fill="none"></path><path d="M0,192v-192h192v192z" fill="none"></path><path d="M0,192v-192h192v192z" fill="none"></path><path d="M0,192v-192h192v192z" fill="none"></path></g></svg>