<svg xmlns="http://www.w3.org/2000/svg" x="0px" y="0px"
width="192mm" height="192mm"
viewBox="0 0 192 192"
style=" fill:#666666;"><g fill="none" fill-rule="nonzero" stroke="none" stroke-width="1" stroke-linecap="butt" stroke-linejoin="miter" stroke-miterlimit="10" stroke-dasharray="" stroke-dashoffset="0" font-family="none" font-weight="normal" font-size="none" text-anchor="inherit" style="mix-blend-mode: normal"><path d="M0,192v-192h192v192z" fill="none"></path><path d="" fill="#666666"></path><path d="M0,192v-192h192v192z" fill="none"></path><path d="M0,192v-192h192v192z" fill="none"></path><path d="M0,192v-192h192v192z" fill="none"></path><path d="M0,192v-192h192v192z" fill="none"></path><path d="M0,192v-192h192v192z" fill="none"></path><path d="M0,192v-192h192v192z" fill="none"></path><path d="M0,192v-192h192v192z" fill="none"></path><path d="M0,192v-192h192v192z" fill="none"></path><path d="M0,192v-192h192v192z" fill="none"></path><path d="M0,192v-192h192v192z" fill="none"></path><path d="M0,192v-192h192v192z" fill="none"></path><path d="M0,192v-192h192v192z" fill="none"></path><path d="M0,192v-192h192v192z" fill="none"></path><path d="M0,192v-192h192v192z" fill="none"></path><path d="M0,192v-192h192v192z" fill="none"></path><path d="M0,192v-192h192v192z" fill="none"></path><path d="M0,192v-192h192v192z" fill="none"></path><path d="M0,192v-192h192v192z" fill="none"></path><path d="M0,192v-192h192v192z" fill="none"></path><path d="M0,192v-192h192v192z" fill="none"></path><path d="M0,192v-192h192v192z" fill="none"></path><path d="M0,192v-192h192v192z" fill="none"></path><path d="M0,192v-192h192v192z" fill="none"></path><path d="M0,192v-192h192v192z" fill="none"></path><path d="M0,192v-192h192v192z" fill="none"></path><path d="M0,192v-192h192v192z" fill="none"></path><path d="M0,192v-192h192v192z" fill="none"></path><path d="M0,192v-192h192v192z" fill="none"></path><path d="M0,192v-192h192v192z" fill="none"></path><path d="M0,192v-192h192v192z" fill="none"></path><path d="M0,192v-192h192v192z" fill="none"></path><path d="M0,192v-192h192v192z" fill="none"></path><path d="M0,192v-192h192v192z" fill="none"></path><path d="M0,192v-192h192v192z" fill="none"></path><path d="M0,192v-192h192v192z" fill="none"></path><path d="M0,192v-192h192v192z" fill="none"></path><path d="M0,192v-192h192v192z" fill="none"></path><path d="M0,192v-192h192v192z" fill="none"></path><path d="M0,192v-192h192v192z" fill="none"></path><path d="M0,192v-192h192v192z" fill="none"></path><path d="M0,192v-192h192v192z" fill="none"></path><path d="M0,192v-192h192v192z" fill="none"></path><path d="M0,192v-192h192v192z" fill="none"></path><path d="M0,192v-192h192v192z" fill="none"></path><path d="M0,192v-192h192v192z" fill="none"></path><path d="M0,192v-192h192v192z" fill="none"></path><path d="M0,192v-192h192v192z" fill="none"></path><path d="M0,192v-192h192v192z" fill="none"></path><path d="M0,192v-192h192v192z" fill="none"></path><path d="M0,192v-192h192v192z" fill="none"></path><path d="M0,192v-192h192v192z" fill="none"></path><path d="M0,192v-192h192v192z" fill="none"></path><path d="M0,192v-192h192v192z" fill="none"></path><path d="M0,192v-192h192v192z" fill="none"></path><path d="M0,192v-192h192v192z" fill="none"></path><path d="M0,192v-192h192v192z" fill="none"></path><path d="M0,192v-192h192v192z" fill="none"></path><path d="M0,192v-192h192v192z" fill="none"></path><path d="M0,192v-192h192v192z" fill="none"></path><path d="M0,192v-192h192v192z" fill="none"></path><g fill="#666666"><path d="M96,0.19201c-0.33365,-0.00008 -0.66697,0.02075 -0.99801,0.06238c-26.29449,0.08934 -46.65293,3.23981 -60.70727,7.15763c-7.12717,1.98678 -12.64418,4.12571 -16.79469,6.34674c-2.07525,1.11052 -3.80886,2.20165 -5.4111,3.64899c-1.60224,1.44733 -3.91408,3.2269 -3.91408,7.92173v72.94853c0,12.92011 6.85446,31.36736 20.78674,50.02541c13.93229,18.65806 35.48876,36.65746 65.30749,43.30442c1.14007,0.25316 2.32179,0.25316 3.46186,0c29.81909,-6.64704 51.3753,-24.64436 65.30749,-43.30442c13.93218,-18.66004 20.78675,-37.12089 20.78675,-50.04101v-72.93293c0,-4.69483 -2.31184,-6.4744 -3.91408,-7.92173c-1.60224,-1.44733 -3.33586,-2.53847 -5.41111,-3.64899c-4.15051,-2.22103 -9.66751,-4.35996 -16.79469,-6.34674c-14.04811,-3.91608 -34.39861,-7.06558 -60.67609,-7.15763c-0.34136,-0.04294 -0.68515,-0.06378 -1.0292,-0.06238zM96,16.16022c25.54815,0 44.84869,3.12388 57.41695,6.62743c6.28413,1.75177 10.91767,3.6432 13.55115,5.05244c0.52112,0.27887 0.53685,0.33554 0.88885,0.56138v69.86092c0,6.0102 -5.43373,24.17956 -17.60558,40.48192c-10.51733,14.08637 -25.8835,27.16086 -46.26727,34.13517v-21.27015h-15.96821v21.27015c-20.38396,-6.97462 -35.75002,-20.05052 -46.26727,-34.13517c-12.17175,-16.30036 -17.60558,-34.45612 -17.60558,-40.46632v-69.87652c0.35201,-0.22585 0.36773,-0.28252 0.88886,-0.56138c2.63349,-1.40924 7.26702,-3.30067 13.55115,-5.05244c12.56826,-3.50355 31.8688,-6.62743 57.41695,-6.62743zM61.89602,40.11254c-21.78064,0 -29.76887,15.96821 -29.76887,15.96821c0,0 10.81048,-7.98411 23.95232,-7.98411c10.71467,0 16.76999,11.48214 16.82588,11.6019h0.01559c1.36063,2.6768 4.10808,4.36384 7.11084,4.36631c4.4095,0 7.98411,-3.57461 7.98411,-7.98411c0.00032,-1.23957 -0.28798,-2.46218 -0.84208,-3.57102c-0.0022,-0.00448 -0.02877,-0.04169 -0.03119,-0.04678c-0.4461,-0.94035 -4.69511,-12.35041 -25.24661,-12.35041zM130.10398,40.11254c-20.66287,0 -24.87061,11.56685 -25.2778,12.3972h0.01559c-0.55949,1.10752 -0.85315,2.3302 -0.85767,3.57102c0,4.4095 3.57461,7.98411 7.98411,7.98411c3.00621,-0.00545 5.75453,-1.69904 7.11084,-4.3819l0.01559,0.01559c0.05589,-0.11976 6.11121,-11.6019 16.82588,-11.6019c13.14184,0 23.95232,7.98411 23.95232,7.98411c0,0 -7.98823,-15.96821 -29.76887,-15.96821zM60.07152,64.06486c-8.18371,0 -15.37739,3.16171 -19.96026,7.98411c4.58288,4.8224 11.77656,7.98411 19.96026,7.98411c8.18371,0 15.37739,-3.16171 19.96026,-7.98411c-4.58288,-4.8224 -11.77656,-7.98411 -19.96026,-7.98411zM131.92848,64.06486c-8.18371,0 -15.37739,3.16171 -19.96026,7.98411c4.58288,4.8224 11.77656,7.98411 19.96026,7.98411c8.18371,0 15.37739,-3.16171 19.96026,-7.98411c-4.58288,-4.8224 -11.77656,-7.98411 -19.96026,-7.98411zM96.04678,98.82379l-16.26449,21.12981h-12.02294l-13.56674,-16.04618l-12.19447,10.3232l18.36968,21.69119h27.25824l8.32717,-10.80661l8.18682,10.80661h27.49215l18.36968,-21.69119l-12.19448,-10.3232l-13.56674,16.04618h-12.16328z"></path></g><path d="M0,192v-192h192v192z" fill="none"></path><path d="M0,192v-192h192v192z" fill="none"></path><path d="M0,192v-192h192v192z" fill="none"></path><path d="M0,192v-192h192v192z" fill="none"></path><path d="M0,192v-192h192v192z" fill="none"></path><path d="M0,192v-192h192v192z" fill="none"></path><path d="M0,192v-192h192v192z" fill="none"></path><path d="M0,192v-192h192v192z" fill="none"></path><path d="M0,192v-192h192v192z" fill="none"></path><path d="M0,192v-192h192v192z" fill="none"></path><path d="M0,192v-192h192v192z" fill="none"></path><path d="M0,192v-192h192v192z" fill="none"></path><path d="M0,192v-192h192v192z" fill="none"></path><path d="M0,192v-192h192v192z" fill="none"></path><path d="M0,192v-192h192v192z" fill="none"></path><path d="M0,192v-192h192v192z" fill="none"></path><path d="M0,192v-192h192v192z" fill="none"></path><path d="M0,192v-192h192v192z" fill="none"></path><path d="M0,192v-192h192v192z" fill="none"></path><path d="M0,192v-192h192v192z" fill="none"></path><path d="M0,192v-192h192v192z" fill="none"></path><path d="M0,192v-192h192v192z" fill="none"></path><path d="M0,192v-192h192v192z" fill="none"></path><path d="M0,192v-192h192v192z" fill="none"></path><path d="M0,192v-192h192v192z" fill="none"></path><path d="M0,192v-192h192v192z" fill="none"></path><path d="M0,192v-192h192v192z" fill="none"></path><path d="M0,192v-192h192v192z" fill="none"></path><path d="M0,192v-192h192v192z" fill="none"></path><path d="M0,192v-192h192v192z" fill="none"></path><path d="M0,192v-192h192v192z" fill="none"></path><path d="M0,192v-192h192v192z" fill="none"></path><path d="M0,192v-192h192v192z" fill="none"></path><path d="M0,192v-192h192v192z" fill="none"></path></g></svg>