<svg xmlns="http://www.w3.org/2000/svg" x="0px" y="0px"
width="192mm" height="192mm"
viewBox="0 0 192 192"
style=" fill:#666666;"><g transform=""><g fill="none" fill-rule="nonzero" stroke="none" stroke-width="1" stroke-linecap="butt" stroke-linejoin="miter" stroke-miterlimit="10" stroke-dasharray="" stroke-dashoffset="0" font-family="none" font-weight="normal" font-size="none" text-anchor="inherit" style="mix-blend-mode: normal"><path d="M0,192v-192h192v192z" fill="none"></path><path d="" fill="#666666"></path><g fill="#666666"><path d="M96.44831,-0.256c-53.23697,0 -89.3,61.14477 -89.3,81.44738c0,8.67611 5.61893,15.28508 11.93077,20.116c-0.52454,0.63533 -1.0701,1.26406 -1.46062,1.96677c-2.29236,4.12498 -3.06585,8.95002 -3.06585,14.99661c0,13.49576 7.40457,21.52368 15.61846,25.66923c1.1069,13.60958 7.02932,23.32519 14.37477,28.28677c8.06025,5.4444 16.72979,7.35186 18.84338,8.50338c8.07856,4.39646 15.52199,11.52585 32.61077,11.52585c17.08878,0 24.53221,-7.12939 32.61077,-11.52585c2.11359,-1.15152 10.78314,-3.05898 18.84339,-8.50338c7.34544,-4.96158 13.26786,-14.6772 14.37477,-28.28677c8.21389,-4.14555 15.61846,-12.17347 15.61846,-25.66923c0,-6.04659 -0.77349,-10.87163 -3.06584,-14.99661c-0.27848,-0.50111 -0.69261,-0.93436 -1.04124,-1.40277c6.13739,-4.66385 11.51139,-11.2919 11.51139,-20.68c0,-20.30261 -35.69952,-81.44738 -88.40338,-81.44738zM106.47015,14.46585l14.21569,24.49785l-8.79262,5.13385l-6.98492,-19.75446l-8.56123,9.28431l-9.47231,-9.47231l-6.768,19.53754c0,0 -8.55603,-4.13658 -8.77815,-4.72892c-0.22953,-0.59234 14.41815,-24.29538 14.41815,-24.29538l10.13754,9.28431zM96,66.38277c16.62501,0 30.28386,4.30545 39.49446,9.3277c0.97081,0.52934 1.67727,1.0653 2.54523,1.60522c-10.43884,1.88494 -25.16406,3.8757 -42.03969,3.8757c-16.89372,0 -31.62856,-1.989 -42.06862,-3.8757c0.87919,-0.54611 1.59041,-1.09915 2.57415,-1.63415c9.21124,-5.00939 22.86587,-9.29877 39.49446,-9.29877zM44.16985,90.46123c10.64476,2.27487 29.32915,5.53877 51.83015,5.53877c22.501,0 41.18539,-3.2639 51.83015,-5.53877v23.77477l9.42893,-2.67539c1.29196,-0.36599 2.73196,-0.5 4.25169,-0.59292c0.39415,0.85116 1.128,3.0554 1.128,7.30308c0,10.97113 -4.64756,13.47579 -9.00954,14.44708l-5.79908,1.28708v6.42093c0,12.05607 -3.74666,16.20263 -8.66246,19.52308c-4.9158,3.32045 -11.33057,4.34115 -17.64307,7.78031c-10.34337,5.62898 -12.06322,9.71815 -25.52462,9.71815c-13.46139,0 -15.18125,-4.08917 -25.52462,-9.71815c-6.31251,-3.43915 -12.72727,-4.45986 -17.64307,-7.78031c-4.9158,-3.32045 -8.66246,-7.46701 -8.66246,-19.52308v-6.42093l-5.79908,-1.28708c-4.36198,-0.97129 -9.00954,-3.47594 -9.00954,-14.44708c0,-4.24767 0.73385,-6.45193 1.128,-7.30308c1.51973,0.09292 2.95973,0.22693 4.25169,0.59292l9.42892,2.67539zM73.78708,103.40431c-4.08929,0 -7.40431,4.97253 -7.40431,11.10646c0,6.13393 3.31502,11.10646 7.40431,11.10646c4.08929,0 7.40431,-4.97253 7.40431,-11.10646c0,-6.13393 -3.31502,-11.10646 -7.40431,-11.10646zM118.21292,103.40431c-4.08929,0 -7.40431,4.97253 -7.40431,11.10646c0,6.13393 3.31502,11.10646 7.40431,11.10646c4.08929,0 7.40431,-4.97253 7.40431,-11.10646c0,-6.13393 -3.31502,-11.10646 -7.40431,-11.10646zM54.264,118.21292c0,0 -2.68985,2.41635 -2.68985,13.16c0,12.65396 8.57569,13.29015 8.57569,13.29015c0,0 0.95053,12.26338 10.06523,12.26338c3.93909,0 6.21858,-1.94109 6.52216,-2.11139c0.5109,0.62196 4.62584,7.8237 10.87508,7.8237c4.85723,0 8.28646,-3.47077 8.28646,-3.47077c0,0 3.79055,3.28277 8.96616,3.28277c5.87902,0 10.39784,-7.50553 10.39784,-7.50553c0,0 2.32507,1.96676 6.78246,1.96676c4.45739,0 8.86041,-3.70088 9.97846,-12.39354c3.62071,0 8.3877,-5.5796 8.3877,-12.784c0,-10.79548 -2.57415,-13.39139 -2.57415,-13.39139c-2.69517,4.56105 -11.63055,9.54681 -19.81231,12.53816c-0.96256,9.48491 -10.40016,16.94892 -22.02492,16.94892c-11.63957,0 -21.07717,-7.48553 -22.02492,-16.97785c-12.7132,-4.71654 -19.71108,-12.63938 -19.71108,-12.63938z"></path></g><path d="M0,192v-192h192v192z" fill="none"></path><path d="M3.84,188.16v-184.32h184.32v184.32z" fill="none"></path><path d="M0,192v-192h192v192z" fill="none"></path><path d="M0,192v-192h192v192z" fill="none"></path><path d="M0,192v-192h192v192z" fill="none"></path><path d="M0,192v-192h192v192z" fill="none"></path><path d="M0,192v-192h192v192z" fill="none"></path><path d="M0,192v-192h192v192z" fill="none"></path><path d="M0,192v-192h192v192z" fill="none"></path><path d="M0,192v-192h192v192z" fill="none"></path><path d="M0,192v-192h192v192z" fill="none"></path><path d="M0,192v-192h192v192z" fill="none"></path><path d="M0,192v-192h192v192z" fill="none"></path><path d="M0,192v-192h192v192z" fill="none"></path><path d="M0,192v-192h192v192z" fill="none"></path><path d="M0,192v-192h192v192z" fill="none"></path><path d="M0,192v-192h192v192z" fill="none"></path><path d="M0,192v-192h192v192z" fill="none"></path><path d="M0,192v-192h192v192z" fill="none"></path><path d="M0,192v-192h192v192z" fill="none"></path><path d="M0,192v-192h192v192z" fill="none"></path><path d="M0,192v-192h192v192z" fill="none"></path><path d="M0,192v-192h192v192z" fill="none"></path><path d="M0,192v-192h192v192z" fill="none"></path><path d="M0,192v-192h192v192z" fill="none"></path><path d="M0,192v-192h192v192z" fill="none"></path><path d="M0,192v-192h192v192z" fill="none"></path><path d="M0,192v-192h192v192z" fill="none"></path><path d="M0,192v-192h192v192z" fill="none"></path><path d="M0,192v-192h192v192z" fill="none"></path><path d="M0,192v-192h192v192z" fill="none"></path><path d="M0,192v-192h192v192z" fill="none"></path><path d="M0,192v-192h192v192z" fill="none"></path><path d="M0,192v-192h192v192z" fill="none"></path><path d="M0,192v-192h192v192z" fill="none"></path><path d="M0,192v-192h192v192z" fill="none"></path><path d="M0,192v-192h192v192z" fill="none"></path><path d="M0,192v-192h192v192z" fill="none"></path><path d="M0,192v-192h192v192z" fill="none"></path><path d="M0,192v-192h192v192z" fill="none"></path><path d="M0,192v-192h192v192z" fill="none"></path><path d="M0,192v-192h192v192z" fill="none"></path><path d="M0,192v-192h192v192z" fill="none"></path><path d="M0,192v-192h192v192z" fill="none"></path><path d="M0,192v-192h192v192z" fill="none"></path><path d="M0,192v-192h192v192z" fill="none"></path><path d="M0,192v-192h192v192z" fill="none"></path><path d="M0,192v-192h192v192z" fill="none"></path><path d="M0,192v-192h192v192z" fill="none"></path><path d="M0,192v-192h192v192z" fill="none"></path><path d="M0,192v-192h192v192z" fill="none"></path><path d="M0,192v-192h192v192z" fill="none"></path><path d="M0,192v-192h192v192z" fill="none"></path><path d="M0,192v-192h192v192z" fill="none"></path><path d="M0,192v-192h192v192z" fill="none"></path><path d="M0,192v-192h192v192z" fill="none"></path><path d="M0,192v-192h192v192z" fill="none"></path><path d="M0,192v-192h192v192z" fill="none"></path><path d="M0,192v-192h192v192z" fill="none"></path><path d="M0,192v-192h192v192z" fill="none"></path><path d="M0,192v-192h192v192z" fill="none"></path><path d="M0,192v-192h192v192z" fill="none"></path><path d="M0,192v-192h192v192z" fill="none"></path><path d="M0,192v-192h192v192z" fill="none"></path><path d="M0,192v-192h192v192z" fill="none"></path><path d="M0,192v-192h192v192z" fill="none"></path><path d="M0,192v-192h192v192z" fill="none"></path><path d="M0,192v-192h192v192z" fill="none"></path><path d="M0,192v-192h192v192z" fill="none"></path><path d="M0,192v-192h192v192z" fill="none"></path><path d="M0,192v-192h192v192z" fill="none"></path><path d="M0,192v-192h192v192z" fill="none"></path><path d="M0,192v-192h192v192z" fill="none"></path><path d="M0,192v-192h192v192z" fill="none"></path><path d="" fill="none"></path><path d="" fill="none"></path><path d="M0,192v-192h192v192z" fill="none"></path><path d="M0,192v-192h192v192z" fill="none"></path><path d="M96,192c-53.01934,0 -96,-42.98066 -96,-96v0c0,-53.01934 42.98066,-96 96,-96v0c53.01934,0 96,42.98066 96,96v0c0,53.01934 -42.98066,96 -96,96z" fill="none"></path><path d="M96,188.16c-50.89856,0 -92.16,-41.26144 -92.16,-92.16v0c0,-50.89856 41.26144,-92.16 92.16,-92.16v0c50.89856,0 92.16,41.26144 92.16,92.16v0c0,50.89856 -41.26144,92.16 -92.16,92.16z" fill="none"></path><path d="M0,192v-192h192v192z" fill="none"></path><path d="M0,192v-192h192v192z" fill="none"></path><path d="M0,192v-192h192v192z" fill="none"></path><path d="M0,192v-192h192v192z" fill="none"></path><path d="M0,192v-192h192v192z" fill="none"></path><path d="M0,192v-192h192v192z" fill="none"></path><path d="M0,192v-192h192v192z" fill="none"></path><path d="M0,192v-192h192v192z" fill="none"></path><path d="M0,192v-192h192v192z" fill="none"></path><path d="M0,192v-192h192v192z" fill="none"></path><path d="M0,192v-192h192v192z" fill="none"></path><path d="M0,192v-192h192v192z" fill="none"></path><path d="M0,192v-192h192v192z" fill="none"></path><path d="M0,192v-192h192v192z" fill="none"></path><path d="M0,192v-192h192v192z" fill="none"></path><path d="M0,192v-192h192v192z" fill="none"></path><path d="M0,192v-192h192v192z" fill="none"></path><path d="M0,192v-192h192v192z" fill="none"></path><path d="M0,192v-192h192v192z" fill="none"></path><path d="M0,192v-192h192v192z" fill="none"></path><path d="M0,192v-192h192v192z" fill="none"></path><path d="M0,192v-192h192v192z" fill="none"></path><path d="M0,192v-192h192v192z" fill="none"></path><path d="M0,192v-192h192v192z" fill="none"></path><path d="M0,192v-192h192v192z" fill="none"></path><path d="M0,192v-192h192v192z" fill="none"></path></g></g></svg>