<svg xmlns="http://www.w3.org/2000/svg" x="0px" y="0px"
width="192mm" height="192mm"
viewBox="0 0 192 192"
style=" fill:#666666;"><g fill="none" fill-rule="nonzero" stroke="none" stroke-width="1" stroke-linecap="butt" stroke-linejoin="miter" stroke-miterlimit="10" stroke-dasharray="" stroke-dashoffset="0" font-family="none" font-weight="normal" font-size="none" text-anchor="inherit" style="mix-blend-mode: normal"><path d="M0,192v-192h192v192z" fill="none"></path><path d="" fill="#666666"></path><path d="M0,192v-192h192v192z" fill="none"></path><path d="M0,192v-192h192v192z" fill="none"></path><path d="M0,192v-192h192v192z" fill="none"></path><path d="M0,192v-192h192v192z" fill="none"></path><path d="M0,192v-192h192v192z" fill="none"></path><path d="M0,192v-192h192v192z" fill="none"></path><path d="M0,192v-192h192v192z" fill="none"></path><path d="M0,192v-192h192v192z" fill="none"></path><path d="M0,192v-192h192v192z" fill="none"></path><path d="M0,192v-192h192v192z" fill="none"></path><path d="M0,192v-192h192v192z" fill="none"></path><path d="M0,192v-192h192v192z" fill="none"></path><path d="M0,192v-192h192v192z" fill="none"></path><path d="M0,192v-192h192v192z" fill="none"></path><g fill="#666666"><path d="M96,0.19221c-0.34925,-0.00208 -0.69826,0.01876 -1.04478,0.06237c-3.03058,0.04138 -5.9723,0.19582 -8.74808,0.56137c-51.95147,6.12679 -78.03104,60.67488 -78.03104,111.15213c0,19.28932 15.96798,40.42295 15.96798,47.90395c0,7.481 -15.96798,7.46503 -15.96798,15.96798c0,8.50295 7.14567,15.96798 15.96798,15.96798h71.85592h71.85592c8.82231,0 15.96798,-7.46503 15.96798,-15.96798c0,-8.50295 -15.96798,-24.45496 -15.96798,-31.93596c0,-7.481 15.96798,-12.64664 15.96798,-31.93596c0,-50.47725 -26.07957,-105.02534 -78.03104,-111.15213c-2.6766,-0.35249 -5.52279,-0.47845 -8.4362,-0.53019c-0.44874,-0.06971 -0.9026,-0.10101 -1.35666,-0.09356zM96,16.1602c22.28504,0 33.18679,9.95916 39.88877,20.30304c6.70197,10.34388 8.07756,20.6461 8.07755,20.6461l0.60816,4.66253l4.38184,1.73091c0,0 10.91562,3.70162 10.91562,16.52935c0,4.90865 -2.18113,8.44635 -6.33106,12.6933c-4.14992,4.24695 -10.03964,8.37877 -15.26626,13.58214c-2.81464,2.80212 -3.82574,5.61783 -4.89643,8.67011c-1.07069,3.05228 -1.94872,6.42269 -2.85365,10.07355c-1.80987,7.30173 -3.70577,15.72539 -6.42462,23.57772c-2.71884,7.85234 -6.27664,15.00177 -10.74408,19.75726c-4.46743,4.7555 -9.39843,7.45381 -17.35582,7.45381c-7.9574,0 -12.88838,-2.69831 -17.35582,-7.45381c-4.46744,-4.75549 -8.02524,-11.90492 -10.74408,-19.75726c-2.71885,-7.85234 -4.61475,-16.276 -6.42462,-23.57772c-0.90493,-3.65086 -1.78296,-7.02127 -2.85365,-10.07355c-1.07069,-3.05228 -2.08179,-5.86799 -4.89643,-8.67011c-5.22662,-5.20337 -11.11634,-9.33519 -15.26626,-13.58214c-4.14992,-4.24695 -6.33106,-7.78465 -6.33106,-12.6933c0,-12.82773 10.91561,-16.52936 10.91561,-16.52935l4.38184,-1.73091l0.60816,-4.66253c0,0 1.37558,-10.30222 8.07755,-20.6461c6.70198,-10.34388 17.60373,-20.30304 39.88877,-20.30304zM82.74533,48.12735c-3.45566,-0.42036 -5.87947,3.88247 -7.76568,7.64093c-2.1477,5.7325 -6.44745,10.02977 -11.46139,12.89602c-3.58481,1.42913 -7.16938,2.15368 -9.32505,5.73849c-2.85827,7.16962 3.5913,13.61333 10.04236,13.61333c10.74645,0 17.19278,-9.32393 21.48817,-19.35182c1.42913,-5.01395 5.00845,-17.18729 -1.43463,-20.05354c-0.53692,-0.26846 -1.05011,-0.42335 -1.54378,-0.48341zM109.23908,48.12735c-0.49442,0.0606 -1.00586,0.21395 -1.54378,0.48341c-6.45106,2.86625 -2.87175,15.05519 -1.43463,20.06913c4.30337,10.01991 10.75731,19.33623 21.50376,19.33623c6.45106,0 12.89302,-6.45169 10.02677,-13.61333c-2.14769,-3.58481 -5.72465,-4.30138 -9.30946,-5.73849c-5.01395,-2.86625 -9.3137,-7.14792 -11.46139,-12.88042c-1.87922,-3.75846 -4.32036,-8.0807 -7.78127,-7.65652zM95.98441,80.03212c-5.485,0 -13.72248,22.45498 -9.73049,22.45498c4.79039,0 7.35088,-4.91202 9.74608,-4.91202c2.3952,0 6.22502,4.91202 9.41862,4.91202c4.79039,0 -3.94921,-22.45498 -9.43421,-22.45498zM96.40544,111.96809c-9.58079,0 -16.37342,5.61062 -16.37342,10.40102c0,7.87222 6.78016,7.56296 7.57856,19.53895c0,12.77439 3.59903,25.94797 8.38943,25.94797c5.58879,0 8.38631,-10.77215 9.18471,-23.54654c0.7984,-16.76638 6.78327,-15.6969 6.78327,-21.94038c0,-3.14569 -5.98176,-10.40102 -15.56255,-10.40102z"></path></g><path d="M0,192v-192h192v192z" fill="none"></path><path d="M0,192v-192h192v192z" fill="none"></path><path d="M0,192v-192h192v192z" fill="none"></path><path d="M0,192v-192h192v192z" fill="none"></path><path d="M0,192v-192h192v192z" fill="none"></path><path d="M0,192v-192h192v192z" fill="none"></path><path d="M0,192v-192h192v192z" fill="none"></path><path d="M0,192v-192h192v192z" fill="none"></path><path d="M0,192v-192h192v192z" fill="none"></path><path d="M0,192v-192h192v192z" fill="none"></path><path d="M0,192v-192h192v192z" fill="none"></path><path d="M0,192v-192h192v192z" fill="none"></path></g></svg>