<svg xmlns="http://www.w3.org/2000/svg" x="0px" y="0px"
width="90" height="90"
viewBox="0 0 192 192"
style=" fill:#666666;"><g fill="none" fill-rule="nonzero" stroke="none" stroke-width="1" stroke-linecap="butt" stroke-linejoin="miter" stroke-miterlimit="10" stroke-dasharray="" stroke-dashoffset="0" font-family="none" font-weight="none" font-size="none" text-anchor="none" style="mix-blend-mode: normal"><path d="M0,192v-192h192v192z" fill="none"></path><path d="" fill="#666666"></path><g fill="#666666"><path d="M95.77549,0.5723c-44.90595,0 -80.74651,39.88655 -80.74651,88.08711v29.36237c0,11.13323 4.8756,19.06024 9.84958,23.41247c3.03281,2.65371 4.30227,2.69539 6.337,3.49825c2.66709,6.89252 19.71634,46.49519 64.55993,46.49519c34.51289,0 52.45802,-23.34066 60.15844,-37.29078c0.22906,1.1688 0.46061,2.25275 0.67384,3.58427c1.41256,8.82062 2.17671,20.85263 10.78149,29.46273c1.84117,1.91755 4.57512,2.68996 7.14751,2.01933c2.57239,-0.67063 4.58125,-2.6795 5.25188,-5.25188c0.67063,-2.57239 -0.10178,-5.30634 -2.01933,-7.14751c-3.27963,-3.28164 -5.18195,-12.22309 -6.65241,-21.40528c-0.73523,-4.59109 -1.40465,-9.11543 -3.39789,-13.50554c-0.14998,-0.33035 -0.3887,-0.65756 -0.55915,-0.98925c4.79513,-4.43781 9.36213,-12.12311 9.36213,-22.88201v-29.36237c0,-9.75565 0.1093,-20.22772 -2.30827,-30.02188c-2.26875,-9.19121 -7.53495,-18.17592 -17.00379,-23.11139c-13.9071,-18.1425 -32.82048,-34.95384 -61.43445,-34.95384zM95.77549,15.25349c16.5675,0 28.46806,6.56522 38.58112,16.3873c-5.3661,-0.62722 -10.61375,-1.07943 -15.61309,-1.29034c-32.55841,-1.37357 -56.20141,4.97497 -56.20141,4.97497c-2.60528,0.61126 -4.67157,2.59171 -5.39277,5.16873c-0.7212,2.57701 0.01696,5.34231 1.9265,7.21708c1.90954,1.87477 4.68793,2.562 7.25126,1.79358c0,0 38.90504,-10.28577 84.2591,-0.34409c0.38619,0.09385 0.77936,0.15618 1.17564,0.18638c4.39815,2.70082 6.68216,6.66497 8.20082,12.81736c0.1226,0.49669 0.17957,1.08716 0.28674,1.60575c-14.37376,-4.23532 -29.05417,-6.56384 -43.24068,-7.41228c-35.80768,-2.1415 -68.00784,4.25237 -83.55658,8.07179c9.04335,-28.81159 33.6765,-49.17623 62.32335,-49.17623zM104.8222,70.8384c18.54164,0.11689 38.324,2.42162 56.84657,8.68827c0.07351,3.02165 0.17205,5.99736 0.17205,9.13273v3.72764c-9.07699,-1.00446 -35.23528,-3.72764 -66.06533,-3.72764c-26.95761,0 -53.65031,3.93302 -66.06533,6.03592v-6.03592c0,-2.75167 0.15351,-5.46192 0.41578,-8.12913c4.29333,-1.22844 35.79171,-9.93714 74.69626,-9.69187zM52.20506,103.34059l21.89274,6.52338c-1.79845,6.04131 -8.16675,9.48313 -14.20806,7.68468c-6.04131,-1.80579 -9.48313,-8.16675 -7.68468,-14.20806zM139.34592,103.34059c1.79845,6.04131 -1.64338,12.40228 -7.68468,14.20806c-6.04131,1.79845 -12.40228,-1.64338 -14.20806,-7.68468zM30.06859,122.06483c9.12486,4.34714 25.39867,10.63813 43.68513,10.63813h44.04355c18.48142,0 34.62772,-6.23524 43.68513,-10.58077c-0.74646,4.34414 -2.62398,6.65445 -4.47317,8.2725c-2.36661,2.07079 -4.2868,2.52333 -4.2868,2.52333l-3.91403,0.97492l-1.276,3.82801c0,0 -12.60709,39.02557 -51.75691,39.02557c-18.81676,0 -31.45524,-9.0157 -39.55604,-18.38015c16.27883,4.40657 38.93813,7.17332 68.18722,0.70252c2.56132,-0.56577 4.62619,-2.45509 5.4167,-4.95619c0.79051,-2.5011 0.18655,-5.23396 -1.58435,-7.16899c-1.7709,-1.93503 -4.43966,-2.77822 -7.00086,-2.21191c-38.42015,8.49973 -62.57351,0.10537 -76.73213,-5.84953c-0.05859,-0.16831 -0.48746,-1.1613 -0.48746,-1.1613l-1.276,-3.82801l-3.91403,-0.97492c0,0 -1.92018,-0.45255 -4.28679,-2.52333c-1.85638,-1.62433 -3.73291,-3.95239 -4.47317,-8.32985z"></path></g><path d="M0,192v-192h192v192z" fill="none"></path><path d="M0,192v-192h192v192z" fill="none"></path><path d="M0,192v-192h192v192z" fill="none"></path><path d="M0,192v-192h192v192z" fill="none"></path><path d="M0,192v-192h192v192z" fill="none"></path><path d="M0,192v-192h192v192z" fill="none"></path><path d="M0,192v-192h192v192z" fill="none"></path><path d="M0,192v-192h192v192z" fill="none"></path><path d="M0,192v-192h192v192z" fill="none"></path><path d="M0,192v-192h192v192z" fill="none"></path><path d="M0,192v-192h192v192z" fill="none"></path><path d="M0,192v-192h192v192z" fill="none"></path><path d="M0,192v-192h192v192z" fill="none"></path><path d="M0,192v-192h192v192z" fill="none"></path></g></svg>