<svg xmlns="http://www.w3.org/2000/svg" x="0px" y="0px"
width="90" height="90"
viewBox="0 0 192 192"
style=" fill:#666666;"><g fill="none" fill-rule="nonzero" stroke="none" stroke-width="1" stroke-linecap="butt" stroke-linejoin="miter" stroke-miterlimit="10" stroke-dasharray="" stroke-dashoffset="0" font-family="none" font-weight="none" font-size="none" text-anchor="none" style="mix-blend-mode: normal"><path d="M0,192v-192h192v192z" fill="none"></path><g fill="#666666"><path d="M166.4,19.2c-1.6368,0 -3.2738,0.6238 -4.525,1.875l-30.1875,26.85c-1.25238,-1.05658 -2.7373,-2.34102 -3.6875,-3.125v-20.9875c0,-2.304 -2.3758,-3.9097 -4.475,-2.9625c-4.9984,2.2592 -13.413,7.2652 -21.125,17.55l-6.4,-12.8c-38.4,6.4 -76.8,44.8 -83.2,83.2c0,0 6.4,32 76.8,64c0,0 6.4,-7.5146 6.4,-21.825c0,-10.3936 -8.5824,-26.6742 6.4,-35.775c9.6384,13.2352 24.544,12.8 32,12.8c0,0 8.5616,12.8 23.8,12.8c11.7888,0 17.4625,-3.6875 17.4625,-3.6875c0,0 3.4095,-16.1835 3.5375,-17.6875c0,-6.4576 -0.6378,-12.4618 -9.425,-17.025c-16.096,-15.616 -20.676,-28.2948 -21.7,-30.65c-0.2408,-2.576 -1.0353,-8.50725 -3.4125,-12.1l26.2625,-29.525c2.5024,-2.5024 2.5024,-6.5476 0,-9.05c-1.2512,-1.2512 -2.8882,-1.875 -4.525,-1.875zM135.9375,76.0375c3.6736,0 6.65,2.97 6.65,6.65c0,3.68 -2.9764,6.6625 -6.65,6.6625c-3.6736,0 -6.6625,-2.9825 -6.6625,-6.6625c0,-3.68 2.9889,-6.65 6.6625,-6.65z"></path></g></g></svg>