<svg xmlns="http://www.w3.org/2000/svg" x="0px" y="0px"
width="90" height="90"
viewBox="0 0 192 192"
style=" fill:#000000;"><g fill="none" fill-rule="nonzero" stroke="none" stroke-width="1" stroke-linecap="butt" stroke-linejoin="miter" stroke-miterlimit="10" stroke-dasharray="" stroke-dashoffset="0" font-family="none" font-weight="none" font-size="none" text-anchor="none" style="mix-blend-mode: normal"><path d="M0,192v-192h192v192z" fill="none"></path><path d="" fill="#000000"></path><path d="M0,192v-192h192v192z" fill="none"></path><path d="M0,192v-192h192v192z" fill="none"></path><g fill="#666666"><path d="M96,0c-7.06924,0 -12.8,5.73076 -12.8,12.8c0.00362,4.56938 2.4428,8.79031 6.4,11.075v14.525h-32c-14.1376,0 -25.6,11.4624 -25.6,25.6v96h128v-96c0,-14.1376 -11.4624,-25.6 -25.6,-25.6h-32v-14.5375c3.95334,-2.28245 6.39193,-6.49759 6.4,-11.0625c0,-7.06924 -5.73076,-12.8 -12.8,-12.8zM70.4,70.4c7.072,0 12.8,5.728 12.8,12.8c0,7.072 -5.728,12.8 -12.8,12.8c-7.072,0 -12.8,-5.728 -12.8,-12.8c0,-7.072 5.728,-12.8 12.8,-12.8zM121.6,70.4c7.072,0 12.8,5.728 12.8,12.8c0,7.072 -5.728,12.8 -12.8,12.8c-7.072,0 -12.8,-5.728 -12.8,-12.8c0,-7.072 5.728,-12.8 12.8,-12.8zM12.7,76.7125c-3.5297,0.05517 -6.34834,2.9577 -6.3,6.4875v38.4c-0.03264,2.30807 1.18,4.45492 3.17359,5.61848c1.99358,1.16356 4.45924,1.16356 6.45283,0c1.99358,-1.16356 3.20623,-3.31041 3.17359,-5.61848v-38.4c0.02369,-1.72992 -0.65393,-3.39575 -1.87846,-4.61793c-1.22453,-1.22218 -2.89166,-1.89659 -4.62154,-1.86957zM179.1,76.7125c-3.5297,0.05517 -6.34834,2.9577 -6.3,6.4875v38.4c-0.03264,2.30807 1.18,4.45492 3.17359,5.61848c1.99358,1.16356 4.45924,1.16356 6.45283,0c1.99358,-1.16356 3.20623,-3.31041 3.17359,-5.61848v-38.4c0.02369,-1.72992 -0.65393,-3.39575 -1.87846,-4.61793c-1.22453,-1.22218 -2.89166,-1.89659 -4.62154,-1.86957zM70.4,121.6h51.2c7.072,0 12.8,5.728 12.8,12.8v12.8h-76.8v-12.8c0,-7.072 5.728,-12.8 12.8,-12.8z"></path></g><path d="M0,192v-192h192v192z" fill="none"></path><path d="M0,192v-192h192v192z" fill="none"></path></g></svg>