<svg xmlns="http://www.w3.org/2000/svg" x="0px" y="0px"
width="90" height="90"
viewBox="0 0 192 192"
style=" fill:#666666;"><g fill="none" fill-rule="nonzero" stroke="none" stroke-width="1" stroke-linecap="butt" stroke-linejoin="miter" stroke-miterlimit="10" stroke-dasharray="" stroke-dashoffset="0" font-family="none" font-weight="none" font-size="none" text-anchor="none" style="mix-blend-mode: normal"><path d="M0,192v-192h192v192z" fill="none"></path><path d="" fill="#666666"></path><g fill="#666666"><path d="M96,9.11998c-7.42271,0 -13.44,6.01729 -13.44,13.44c0.00275,5.20366 3.00909,9.93813 7.7175,12.15375l-26.25,55.79437l-37.695,-26.60437c1.60195,-2.26475 2.46387,-4.96971 2.4675,-7.74375c0,-7.42271 -6.01729,-13.44 -13.44,-13.44c-7.42271,0 -13.44,6.01729 -13.44,13.44c0,7.42271 6.01729,13.44 13.44,13.44c0.37262,-0.0064 0.74482,-0.02829 1.11562,-0.06563l5.60438,67.26563h20.16h87.36h20.16h20.16l5.60437,-67.2525c0.37099,0.03295 0.74318,0.05046 1.11563,0.0525c7.42271,0 13.44,-6.01729 13.44,-13.44c0,-7.42271 -6.01729,-13.44 -13.44,-13.44c-7.42271,0 -13.44,6.01729 -13.44,13.44c0.00363,2.77404 0.86555,5.47901 2.4675,7.74375l-37.69501,26.60437l-26.25,-55.79437c4.70841,-2.21562 7.71475,-6.95009 7.7175,-12.15375c0,-7.42271 -6.01729,-13.44 -13.44,-13.44zM22.08,150.23998c-2.42347,-0.03427 -4.67767,1.239 -5.89941,3.33227c-1.22174,2.09326 -1.22174,4.68221 0,6.77547c1.22174,2.09326 3.47593,3.36654 5.89941,3.33227h147.84c2.42347,0.03427 4.67767,-1.239 5.89941,-3.33227c1.22174,-2.09326 1.22174,-4.68221 0,-6.77547c-1.22174,-2.09326 -3.47593,-3.36654 -5.89941,-3.33227z"></path></g><path d="M0,192v-192h192v192z" fill="none"></path><path d="M0,192v-192h192v192z" fill="none"></path><path d="M0,192v-192h192v192z" fill="none"></path><path d="M0,192v-192h192v192z" fill="none"></path><path d="M0,192v-192h192v192z" fill="none"></path><path d="M0,192v-192h192v192z" fill="none"></path><path d="M0,192v-192h192v192z" fill="none"></path><path d="M0,192v-192h192v192z" fill="none"></path><path d="M0,192v-192h192v192z" fill="none"></path><path d="M0,192v-192h192v192z" fill="none"></path><path d="M0,192v-192h192v192z" fill="none"></path><path d="M0,192v-192h192v192z" fill="none"></path></g></svg>