<svg xmlns="http://www.w3.org/2000/svg" x="0px" y="0px"
width="90" height="90"
viewBox="0 0 192 192"
style=" fill:#000000;"><g fill="none" fill-rule="nonzero" stroke="none" stroke-width="1" stroke-linecap="butt" stroke-linejoin="miter" stroke-miterlimit="10" stroke-dasharray="" stroke-dashoffset="0" font-family="none" font-weight="none" font-size="none" text-anchor="none" style="mix-blend-mode: normal"><path d="M0,192v-192h192v192z" fill="none"></path><path d="" fill="#000000"></path><g fill="#666666"><path d="M96,12.8c0,0 -38.4,25.6 -38.4,83.2c0,1.01665 0.08738,2.03495 0.15,3.05c-6.61803,5.3508 -19.35,16.81252 -19.35,26.0375c0,11.6416 11.6375,34.9125 11.6375,34.9125l21.125,-26.4125l5.6375,13.6125h38.4l5.6375,-13.6125l21.125,26.4125c0,0 11.6375,-23.2709 11.6375,-34.9125c0,-9.22499 -12.73197,-20.68671 -19.35,-26.0375c0.06263,-1.01505 0.15,-2.03334 0.15,-3.05c0,-57.6 -38.4,-83.2 -38.4,-83.2zM96,57.6c7.072,0 12.8,5.728 12.8,12.8c0,7.072 -5.728,12.8 -12.8,12.8c-7.072,0 -12.8,-5.728 -12.8,-12.8c0,-7.072 5.728,-12.8 12.8,-12.8zM79.475,153.6c-1.6576,2.1376 -2.675,4.594 -2.675,7.25c0,12.17921 19.2,24.75 19.2,24.75c0,0 19.2,-12.4044 19.2,-24.75c0,-2.65599 -1.0113,-5.106 -2.6625,-7.25h-5.4125c0.1152,0.4928 0.4,0.9316 0.4,1.45c0,8.6976 -11.525,13.05 -11.525,13.05c0,0 -11.525,-4.3524 -11.525,-13.05c0,-0.51199 0.2848,-0.9572 0.4,-1.45z"></path></g><path d="M0,192v-192h192v192z" fill="none"></path><path d="M0,192v-192h192v192z" fill="none"></path></g></svg>