<svg xmlns="http://www.w3.org/2000/svg" x="0px" y="0px"
width="90" height="90"
viewBox="0 0 192 192"
style=" fill:#666666;"><g fill="none" fill-rule="nonzero" stroke="none" stroke-width="1" stroke-linecap="butt" stroke-linejoin="miter" stroke-miterlimit="10" stroke-dasharray="" stroke-dashoffset="0" font-family="none" font-weight="none" font-size="none" text-anchor="none" style="mix-blend-mode: normal"><path d="M0,192v-192h192v192z" fill="none"></path><path d="" fill="#666666"></path><path d="M0,192v-192h192v192z" fill="none"></path><path d="M0,192v-192h192v192z" fill="none"></path><path d="M0,192v-192h192v192z" fill="none"></path><path d="M0,192v-192h192v192z" fill="none"></path><path d="M0,192v-192h192v192z" fill="none"></path><path d="M0,192v-192h192v192z" fill="none"></path><path d="M0,192v-192h192v192z" fill="none"></path><path d="M0,192v-192h192v192z" fill="none"></path><path d="M0,192v-192h192v192z" fill="none"></path><path d="M0,192v-192h192v192z" fill="none"></path><path d="M0,192v-192h192v192z" fill="none"></path><path d="M0,192v-192h192v192z" fill="none"></path><path d="M0,192v-192h192v192z" fill="none"></path><path d="M0,192v-192h192v192z" fill="none"></path><path d="M0,192v-192h192v192z" fill="none"></path><path d="M0,192v-192h192v192z" fill="none"></path><path d="M0,192v-192h192v192z" fill="none"></path><path d="M0,192v-192h192v192z" fill="none"></path><path d="M0,192v-192h192v192z" fill="none"></path><path d="M0,192v-192h192v192z" fill="none"></path><path d="M0,192v-192h192v192z" fill="none"></path><path d="M0,192v-192h192v192z" fill="none"></path><path d="M0,192v-192h192v192z" fill="none"></path><path d="M0,192v-192h192v192z" fill="none"></path><path d="M0,192v-192h192v192z" fill="none"></path><path d="M0,192v-192h192v192z" fill="none"></path><path d="M0,192v-192h192v192z" fill="none"></path><path d="M0,192v-192h192v192z" fill="none"></path><path d="M0,192v-192h192v192z" fill="none"></path><path d="M0,192v-192h192v192z" fill="none"></path><path d="M0,192v-192h192v192z" fill="none"></path><path d="M0,192v-192h192v192z" fill="none"></path><path d="M0,192v-192h192v192z" fill="none"></path><path d="M0,192v-192h192v192z" fill="none"></path><path d="M0,192v-192h192v192z" fill="none"></path><path d="M0,192v-192h192v192z" fill="none"></path><g fill="#666666"><path d="M98.07593,5.28v70.56h-57.58594c-1.81899,-4.28558 -4.60974,-9.94518 -9.43031,-16.34063c-8.36653,-11.09986 -22.97732,-23.17219 -43.82438,-23.17219v20.16c13.31407,0 21.67418,7.09259 27.73969,15.13969c5.43386,7.20909 7.67405,13.58675 8.15062,15.00187c0.26401,25.5002 14.57605,47.74514 35.57531,59.81063c-0.31465,-0.02051 -0.62974,-0.03364 -0.945,-0.03937c-11.13406,0 -20.16,9.02594 -20.16,20.16c0,11.13406 9.02594,20.16 20.16,20.16c11.13406,0 20.16,-9.02594 20.16,-20.16c-0.00571,-5.28187 -2.08407,-10.35055 -5.78813,-14.11594c7.04349,2.30518 14.53993,3.60281 22.32563,3.60281h22.97531c5.13423,0 10.14094,-0.58348 14.98219,-1.61437c-2.64619,3.49032 -4.08367,7.74749 -4.095,12.1275c0,11.13406 9.02594,20.16 20.16,20.16c11.13406,0 20.16,-9.02594 20.16,-20.16c0.00131,-9.5643 -6.71784,-17.81315 -16.08469,-19.74656c21.54477,-12.08898 36.24469,-34.83644 36.24469,-60.89344v-10.08c0,0 0.09576,-17.67302 -10.19813,-35.31937c-10.29371,-17.64635 -32.28188,-35.24063 -70.44187,-35.24063zM118.23593,26.48344c24.61784,2.51673 36.49643,13.11875 42.95813,24.19594c7.34629,12.59365 7.44187,25.16063 7.44187,25.16063h-50.4zM45.33312,96h121.21594c-4.92256,22.49306 -24.48413,39.88687 -49.12031,39.88687h-22.97531c-24.63619,0 -44.19776,-17.39382 -49.12031,-39.88687z"></path></g><path d="M0,192v-192h192v192z" fill="none"></path><path d="M0,192v-192h192v192z" fill="none"></path></g></svg>