<svg xmlns="http://www.w3.org/2000/svg" x="0px" y="0px"
width="192mm" height="192mm"
viewBox="0 0 192 192"
style=" fill:#b1b1b1;"><g transform=""><g fill="none" fill-rule="nonzero" stroke="none" stroke-width="1" stroke-linecap="butt" stroke-linejoin="miter" stroke-miterlimit="10" stroke-dasharray="" stroke-dashoffset="0" font-family="none" font-weight="normal" font-size="none" text-anchor="inherit" style="mix-blend-mode: normal"><path d="M0,192v-192h192v192z" fill="none"></path><path d="" fill="#b1b1b1"></path><path d="M0,192v-192h192v192z" fill="none"></path><path d="M0,192v-192h192v192z" fill="none"></path><path d="M0,192v-192h192v192z" fill="none"></path><path d="M0,192v-192h192v192z" fill="none"></path><path d="M0,192v-192h192v192z" fill="none"></path><path d="M0,192v-192h192v192z" fill="none"></path><path d="M0,192v-192h192v192z" fill="none"></path><path d="M0,192v-192h192v192z" fill="none"></path><path d="M0,192v-192h192v192z" fill="none"></path><path d="M0,192v-192h192v192z" fill="none"></path><path d="M0,192v-192h192v192z" fill="none"></path><path d="M0,192v-192h192v192z" fill="none"></path><path d="M0,192v-192h192v192z" fill="none"></path><path d="M0,192v-192h192v192z" fill="none"></path><path d="M0,192v-192h192v192z" fill="none"></path><path d="M0,192v-192h192v192z" fill="none"></path><path d="M0,192v-192h192v192z" fill="none"></path><path d="M0,192v-192h192v192z" fill="none"></path><path d="M0,192v-192h192v192z" fill="none"></path><path d="M0,192v-192h192v192z" fill="none"></path><path d="M0,192v-192h192v192z" fill="none"></path><path d="M0,192v-192h192v192z" fill="none"></path><path d="M0,192v-192h192v192z" fill="none"></path><path d="M0,192v-192h192v192z" fill="none"></path><path d="M0,192v-192h192v192z" fill="none"></path><path d="M0,192v-192h192v192z" fill="none"></path><path d="M0,192v-192h192v192z" fill="none"></path><path d="M0,192v-192h192v192z" fill="none"></path><path d="M0,192v-192h192v192z" fill="none"></path><path d="M0,192v-192h192v192z" fill="none"></path><path d="M0,192v-192h192v192z" fill="none"></path><path d="M0,192v-192h192v192z" fill="none"></path><path d="M0,192v-192h192v192z" fill="none"></path><path d="M0,192v-192h192v192z" fill="none"></path><path d="M0,192v-192h192v192z" fill="none"></path><path d="M0,192v-192h192v192z" fill="none"></path><path d="" fill="none"></path><path d="" fill="none"></path><path d="" fill="none"></path><path d="M0,192v-192h192v192z" fill="none"></path><path d="M0,192v-192h192v192z" fill="none"></path><g fill="#b1b1b1"><path d="M96,3.08c-33.00336,0 -55.27241,21.58416 -62.72297,46.8h-2.79703l-9.70734,19.41469c-11.25072,9.5004 -18.37266,22.99547 -18.37266,36.74531c0,28.81008 24.78806,47.93446 51.75422,54.13078c7.56288,12.3552 23.18194,20.74922 41.84578,20.74922c18.66384,0 34.2829,-8.39402 41.84578,-20.74922c26.96616,-6.19632 51.75422,-25.3207 51.75422,-54.13078c0,-13.74984 -7.12194,-27.24491 -18.37266,-36.74531l-0.69468,-1.38938l4.91765,-2.70562c13.2444,-7.65648 17.66993,-23.83202 10.60313,-36.59906l-3.52828,-6.80063l-7.07485,4.25953c-9.13536,5.27904 -13.93338,14.60409 -13.80234,24.07641l-0.12797,-0.25594h-2.79703c-7.45056,-25.21584 -29.71961,-46.8 -62.72297,-46.8zM96,21.8c22.57632,0 36.42356,13.3848 42.74156,28.08h-85.48312c6.318,-14.6952 20.16524,-28.08 42.74156,-28.08zM67.92,59.24c10.296,0 18.72,3.744 18.72,9.36c0,0.26208 -0.10881,0.49681 -0.14625,0.74953c-8.05896,1.3104 -15.16276,4.38238 -21.07828,8.50078c-9.10728,-0.5616 -16.21547,-4.10231 -16.21547,-9.25031c0,-5.616 8.424,-9.36 18.72,-9.36zM124.08,59.24c10.296,0 18.72,3.744 18.72,9.36c0,5.148 -7.10819,8.68871 -16.21547,9.25031c-5.91552,-4.10904 -13.02868,-7.1721 -21.07828,-8.4825c-0.0468,-0.26208 -0.14625,-0.50573 -0.14625,-0.76781c0,-5.616 8.424,-9.36 18.72,-9.36zM29.0175,87.32h26.6175c-3.99672,5.53176 -6.435,11.87784 -6.435,18.72h18.72c0,-10.296 13.104,-18.72 28.08,-18.72c14.976,0 28.08,8.424 28.08,18.72h18.72c0,-6.84216 -2.43828,-13.18824 -6.435,-18.72h26.6175c4.87656,5.49432 7.8975,12.14928 7.8975,18.72c0,23.50296 -27.74596,36.05428 -47.45812,37.45828l0.20109,2.97984c-2.17152,8.90137 -13.67657,15.72188 -27.62297,15.72188c-13.9464,0 -25.46081,-6.82051 -27.62297,-15.72188l0.21938,-2.97984c-19.72152,-1.404 -47.47641,-13.95532 -47.47641,-37.45828c0,-6.57072 3.02094,-13.22568 7.8975,-18.72zM114.79312,114.92469c-1.22615,2.808 -14.188,9.83531 -37.51312,9.83531v18.72c27.0504,0 56.16,-8.78904 56.16,-28.08z"></path></g><path d="M0,192v-192h192v192z" fill="none"></path><path d="M0,192v-192h192v192z" fill="none"></path><path d="M0,192v-192h192v192z" fill="none"></path><path d="M0,192v-192h192v192z" fill="none"></path><path d="M0,192v-192h192v192z" fill="none"></path><path d="M0,192v-192h192v192z" fill="none"></path><path d="M0,192v-192h192v192z" fill="none"></path><path d="M0,192v-192h192v192z" fill="none"></path><path d="M0,192v-192h192v192z" fill="none"></path><path d="M0,192v-192h192v192z" fill="none"></path><path d="M0,192v-192h192v192z" fill="none"></path><path d="M0,192v-192h192v192z" fill="none"></path><path d="M0,192v-192h192v192z" fill="none"></path><path d="M0,192v-192h192v192z" fill="none"></path><path d="M0,192v-192h192v192z" fill="none"></path><path d="M0,192v-192h192v192z" fill="none"></path><path d="M0,192v-192h192v192z" fill="none"></path><path d="M0,192v-192h192v192z" fill="none"></path><path d="M0,192v-192h192v192z" fill="none"></path><path d="M0,192v-192h192v192z" fill="none"></path><path d="M0,192v-192h192v192z" fill="none"></path><path d="M0,192v-192h192v192z" fill="none"></path><path d="M0,192v-192h192v192z" fill="none"></path><path d="M0,192v-192h192v192z" fill="none"></path><path d="M0,192v-192h192v192z" fill="none"></path><path d="M0,192v-192h192v192z" fill="none"></path><path d="M0,192v-192h192v192z" fill="none"></path><path d="M0,192v-192h192v192z" fill="none"></path><path d="M0,192v-192h192v192z" fill="none"></path><path d="M0,192v-192h192v192z" fill="none"></path><path d="" fill="none"></path><path d="M0,192v-192h192v192z" fill="none"></path><path d="M0,192v-192h192v192z" fill="none"></path></g></g></svg>