<svg xmlns="http://www.w3.org/2000/svg" x="0px" y="0px"
width="192mm" height="192mm"
viewBox="0 0 192 192"
style=" fill:#b1b1b1;"><g fill="none" fill-rule="nonzero" stroke="none" stroke-width="1" stroke-linecap="butt" stroke-linejoin="miter" stroke-miterlimit="10" stroke-dasharray="" stroke-dashoffset="0" font-family="none" font-weight="normal" font-size="none" text-anchor="inherit" style="mix-blend-mode: normal"><path d="M0,192v-192h192v192z" fill="none"></path><path d="" fill="#b1b1b1"></path><g fill="#b1b1b1"><path d="M81.22287,10.24025c-25.87891,0 -49.542,9.23218 -67.70175,24.51c0,0 33.27557,-0.8151 45.35775,29.0985c0,0 -45.35273,-0.0065 -57.72675,57.72675c0,0 28.87483,-16.49717 54.834,-1.482c0,0 -21.84525,13.85248 -21.84525,63.34125c0,0 14.34857,-23.35851 52.16925,-21.546c0.79942,0.79229 1.59769,1.59352 2.46525,2.32275c9.21319,7.74413 21.91081,11.92725 36.40875,11.92725c15.52783,0 29.63875,-3.14078 40.45575,-10.33125c10.81701,-7.19046 17.91225,-19.06595 17.91225,-33.44475c0,-1.11096 -0.13117,-2.28132 -0.342,-3.46275c5.33021,-3.31209 8.50951,-8.32879 7.42425,-12.58275c-1.37165,-5.34797 -8.9197,-7.3978 -16.85775,-4.57425c-4.08809,1.45279 -7.44542,3.92563 -9.59025,6.6975c-3.22555,0.8547 -5.73302,2.36939 -8.55,3.5055c-4.06223,1.63832 -8.73314,3.12075 -15.86025,3.12075c-12.54653,0 -20.73738,-3.16339 -27.17475,-6.48375c-3.21868,-1.66018 -5.96686,-3.38949 -8.721,-4.91625c-1.01298,-0.56154 -2.1049,-1.08673 -3.20625,-1.596c-1.07685,-1.16808 -4.674,-5.70166 -4.674,-15.06225c0,-9.23522 2.12608,-17.54082 5.17275,-22.92825c3.04667,-5.38744 6.18834,-7.3815 9.41925,-7.3815c6.60851,0 10.07562,1.85629 12.92475,4.7025c2.84914,2.84621 4.95135,7.17075 6.441,12.027c1.48965,4.85625 2.33457,10.03147 3.363,14.535c0.51422,2.25176 0.99138,4.31056 2.1375,6.59775c0.57303,1.1436 1.33232,2.41457 2.7645,3.648c1.43218,1.23343 3.77672,2.26575 6.0135,2.26575c2.35161,0 4.34342,-1.08544 5.48625,-2.052c0.30338,-0.25659 0.49055,-0.49525 0.72675,-0.741c0.49024,1.31994 1.20561,2.3265 2.29425,2.5365c2.87462,0.5545 6.14346,-3.46059 7.8945,-9.633c1.75104,-6.17242 1.27133,-11.387 -1.596,-11.9415c-0.12438,-0.0243 -0.2574,0.0068 -0.38475,0c0.99529,-2.25808 2.04235,-4.31309 3.021,-5.54325c1.3443,-1.68979 1.75891,-1.80975 2.5365,-1.80975c1.31578,0 2.01775,0.40792 3.00675,1.72425c0.98899,1.31634 1.7385,3.57098 1.7385,5.529c-0.03721,2.6312 1.3452,5.07861 3.61789,6.40507c2.27269,1.32646 5.08354,1.32646 7.35622,0c2.27269,-1.32646 3.6551,-3.77387 3.61789,-6.40507c0,-5.08992 -1.51887,-10.09332 -4.674,-14.29275c-0.63108,-0.83996 -1.40037,-1.61332 -2.1945,-2.36549c8.27312,-11.96126 7.93725,-28.22925 7.93725,-28.22925c-5.85,-2.00506 -16.95436,-0.10308 -25.03725,1.7955c-19.01622,-21.41681 -47.01358,-35.21175 -78.36075,-35.21175zM114.69613,81.362c-3.51667,-0.74419 -8.07918,4.86415 -10.2315,13.167c-2.15232,8.30285 -1.01597,15.13031 2.508,15.8745c3.52397,0.74419 7.53073,-4.65735 9.67575,-12.96749c2.14502,-8.31014 1.56442,-15.3371 -1.95225,-16.074zM84.74262,113.054c0.01321,0.03062 0.02951,0.055 0.04275,0.08549c-0.878,0.52563 -1.68368,1.12023 -2.451,1.75275c0.68327,-0.69872 1.52504,-1.28356 2.40825,-1.83825zM94.03363,125.06675c-0.63366,0 0.5974,0.15876 2.77875,1.368c2.18137,1.20924 5.23762,3.12793 9.0915,5.11575c7.70776,3.97563 18.75964,8.10825 33.87225,8.10825c9.28889,0 16.33501,-2.16558 21.318,-4.17525c4.98299,-2.00967 8.05502,-3.12075 7.866,-3.12075c0,9.97525 -3.93688,16.34273 -11.4,21.30375c-7.46312,4.96102 -18.88034,7.88025 -32.376,7.88025c-11.6947,0 -20.89135,-3.35752 -27.018,-8.50725c-6.12665,-5.14973 -9.462,-11.98416 -9.462,-20.67675c0,-1.21409 0.71669,-3.69338 1.8525,-5.2155c1.13582,-1.52211 2.04369,-2.0805 3.477,-2.0805z"></path></g><path d="M0,192v-192h192v192z" fill="none"></path><path d="M0,192v-192h192v192z" fill="none"></path><path d="M0,192v-192h192v192z" fill="none"></path><path d="M0,192v-192h192v192z" fill="none"></path><path d="M0,192v-192h192v192z" fill="none"></path><path d="M0,192v-192h192v192z" fill="none"></path><path d="M0,192v-192h192v192z" fill="none"></path><path d="M0,192v-192h192v192z" fill="none"></path><path d="M0,192v-192h192v192z" fill="none"></path><path d="M0,192v-192h192v192z" fill="none"></path><path d="M0,192v-192h192v192z" fill="none"></path><path d="M0,192v-192h192v192z" fill="none"></path><path d="M0,192v-192h192v192z" fill="none"></path><path d="M0,192v-192h192v192z" fill="none"></path><path d="M0,192v-192h192v192z" fill="none"></path><path d="M0,192v-192h192v192z" fill="none"></path><path d="M0,192v-192h192v192z" fill="none"></path><path d="M0,192v-192h192v192z" fill="none"></path><path d="M0,192v-192h192v192z" fill="none"></path><path d="M0,192v-192h192v192z" fill="none"></path><path d="M0,192v-192h192v192z" fill="none"></path><path d="M0,192v-192h192v192z" fill="none"></path><path d="M0,192v-192h192v192z" fill="none"></path><path d="M0,192v-192h192v192z" fill="none"></path><path d="M0,192v-192h192v192z" fill="none"></path><path d="M0,192v-192h192v192z" fill="none"></path><path d="M0,192v-192h192v192z" fill="none"></path><path d="M0,192v-192h192v192z" fill="none"></path><path d="M0,192v-192h192v192z" fill="none"></path><path d="M0,192v-192h192v192z" fill="none"></path></g></svg>