<svg xmlns="http://www.w3.org/2000/svg" x="0px" y="0px"
width="192mm" height="192mm"
viewBox="0 0 192 192"
style=" fill:#b1b1b1;"><g fill="none" fill-rule="nonzero" stroke="none" stroke-width="1" stroke-linecap="butt" stroke-linejoin="miter" stroke-miterlimit="10" stroke-dasharray="" stroke-dashoffset="0" font-family="none" font-weight="normal" font-size="none" text-anchor="inherit" style="mix-blend-mode: normal"><path d="M0,192v-192h192v192z" fill="none"></path><path d="" fill="#b1b1b1"></path><path d="M0,192v-192h192v192z" fill="none"></path><path d="M0,192v-192h192v192z" fill="none"></path><path d="M0,192v-192h192v192z" fill="none"></path><path d="M0,192v-192h192v192z" fill="none"></path><path d="M0,192v-192h192v192z" fill="none"></path><path d="M0,192v-192h192v192z" fill="none"></path><path d="M0,192v-192h192v192z" fill="none"></path><path d="M0,192v-192h192v192z" fill="none"></path><path d="M0,192v-192h192v192z" fill="none"></path><path d="M0,192v-192h192v192z" fill="none"></path><path d="M0,192v-192h192v192z" fill="none"></path><path d="M0,192v-192h192v192z" fill="none"></path><path d="M0,192v-192h192v192z" fill="none"></path><path d="M0,192v-192h192v192z" fill="none"></path><path d="M0,192v-192h192v192z" fill="none"></path><path d="M0,192v-192h192v192z" fill="none"></path><path d="M0,192v-192h192v192z" fill="none"></path><path d="M0,192v-192h192v192z" fill="none"></path><path d="M0,192v-192h192v192z" fill="none"></path><path d="M0,192v-192h192v192z" fill="none"></path><path d="M0,192v-192h192v192z" fill="none"></path><path d="M0,192v-192h192v192z" fill="none"></path><path d="M0,192v-192h192v192z" fill="none"></path><path d="M0,192v-192h192v192z" fill="none"></path><path d="M0,192v-192h192v192z" fill="none"></path><path d="M0,192v-192h192v192z" fill="none"></path><path d="M0,192v-192h192v192z" fill="none"></path><path d="M0,192v-192h192v192z" fill="none"></path><path d="M0,192v-192h192v192z" fill="none"></path><path d="M0,192v-192h192v192z" fill="none"></path><g fill="#b1b1b1"><path d="M167.81176,9.27968c-13.63801,2.35648 -19.29937,7.8918 -23.04313,13.8c-14.35418,0.65772 -25.53774,3.39588 -31.7975,5.50562c-1.30272,-2.54656 -2.40155,-5.59268 -2.97563,-7.705c-0.87584,-3.2016 -3.79627,-5.43375 -7.11563,-5.43375c-13.10816,0 -22.56404,7.20981 -27.67188,12.39125c-1.89152,-1.34688 -3.68598,-3.16503 -3.7375,-5.20375c-0.05152,-2.20064 -1.0879,-4.25201 -2.8175,-5.60625c-1.7296,-1.35424 -3.96761,-1.85035 -6.10937,-1.40875c-11.28288,2.45088 -25.83187,19.00812 -25.83187,33.235c0,6.88856 2.56183,13.3954 5.18938,18.3425c-1.45293,1.10751 -2.91445,2.18037 -4.34125,3.45c-4.8576,4.3424 -8.28,11.04 -8.28,11.04c0.4784,4.048 7.36,7.36 7.36,7.36v29.44h-25.76c-1.0304,0 -3.68,0 -3.68,3.68v3.68c0,11.04 6.2928,22.08 7.36,22.08h3.68c0,0 2.39257,7.36 2.42937,7.36c16.0816,7.36 52.77063,7.36 52.77063,7.36v14.72h66.24v-22.08c0,0 14.72,-21.16 14.72,-44.16c0,-6.3296 -1.03925,-12.63792 -3.00437,-18.67312c-5.2992,1.89152 -13.3883,1.85587 -15.0075,-5.26125c-2.56128,-11.2608 16.02307,-7.6904 22.06563,-31.92688c3.63584,-14.58016 1.6644,-28.05045 12.83688,-38.88437c2.95136,-2.86304 0.56925,-7.80045 -3.47875,-7.10125zM97.84863,30.81343c1.53824,3.83456 3.92001,8.61293 7.17313,11.88813c2.19328,2.21536 5.5614,2.80577 8.395,1.46625c0.10389,-0.05501 7.76077,-3.38044 20.34062,-5.29c-8.39813,6.37809 -17.90029,10.45125 -24.12124,15.03625c-4.43808,-1.02304 -9.11145,-1.6675 -14.11625,-1.6675c-15.01736,0 -28.51028,1.6028 -40.98313,7.33125c-1.66059,-3.29322 -3.105,-7.17699 -3.105,-10.72375c0,-4.8576 4.47683,-11.43525 8.81187,-15.42437c3.84928,5.57888 10.07078,9.10029 14.3175,10.59437c3.128,1.09664 6.64021,-0.09395 8.52437,-2.83187c0.06624,-0.09568 5.64408,-8.03827 14.76312,-10.37875zM175.373,50.78031c-0.55936,3.84928 -1.16127,7.80436 -2.21375,11.845c-0.33856,1.28064 -0.88723,2.47964 -1.36563,3.70875c1.14816,1.17761 2.18776,2.48538 2.99,4.0825c-9.06752,5.84384 -12.48072,15.78605 -12.65,16.30125c-0.97888,2.944 0.00024,6.20827 2.44375,8.12187c0.08833,0.0736 7.2059,5.74046 10.4075,13.81437c-4.69568,1.22177 -10.40221,3.63872 -14.92125,8.46688c-1.55296,1.66336 -2.24376,3.95784 -1.88312,6.21c0.36064,2.25216 1.75732,4.20773 3.75188,5.30437c0.11775,0.06624 9.38687,5.23676 13.06687,14.56188h-13.23937c-2.8704,0 -5.46296,1.68532 -6.67,4.29812c-1.20704,2.60544 -0.76958,5.69158 1.0925,7.8775c0.05887,0.0736 5.5775,6.61871 5.5775,14.63375c0,4.07008 3.29728,7.36 7.36,7.36c4.06272,0 7.36,-3.28992 7.36,-7.36c0,-4.49696 -0.93345,-8.59337 -2.19937,-12.08937h9.55937c1.97248,0 3.84882,-0.7866 5.2325,-2.185c1.38367,-1.3984 2.14958,-3.30315 2.1275,-5.27563c-0.15456,-12.60032 -6.6884,-21.75121 -12.65,-27.49937c2.88512,-0.75072 5.23216,-0.79063 5.24688,-0.79063c2.04608,-0.32384 3.97784,-0.81328 5.37624,-2.3c1.3984,-1.472 2.13026,-3.45288 2.0125,-5.47688c-0.69184,-12.15136 -8.01964,-21.77168 -12.995,-26.95312c1.56768,-2.33312 4.07088,-5.02952 7.63312,-6.02312c3.73152,-1.05248 6.02037,-4.80585 5.21813,-8.59625c-2.37728,-11.35648 -8.559,-18.03304 -15.66876,-22.03688zM61.83925,88.08344c7.1318,-0.76008 15.28063,6.48312 15.28063,23.04312c0,14.72 -5.36188,18.4 -5.36188,18.4h-20.39812v-8.15063v-13.92937v-3.68c0,-9.66 4.93242,-15.09195 10.47937,-15.68312zM51.35988,107.44656c0,1.63392 0.07015,3.08832 0.14375,4.41312c0,0 0.30855,6.62688 6.77063,6.62688c4.3056,0 7.80563,-4.94592 7.80563,-11.04c0,-6.09408 -3.50003,-11.04 -7.80563,-11.04c-5.9984,0 -6.6907,5.96655 -6.7275,6.54063c-0.1104,1.36896 -0.18687,2.86545 -0.18687,4.49937z"></path></g><path d="M0,192v-192h192v192z" fill="none"></path><path d="M0,192v-192h192v192z" fill="none"></path><path d="M0,192v-192h192v192z" fill="none"></path><path d="M0,192v-192h192v192z" fill="none"></path><path d="M0,192v-192h192v192z" fill="none"></path><path d="M0,192v-192h192v192z" fill="none"></path><path d="M0,192v-192h192v192z" fill="none"></path><path d="M0,192v-192h192v192z" fill="none"></path><path d="M0,192v-192h192v192z" fill="none"></path><path d="M0,192v-192h192v192z" fill="none"></path><path d="M0,192v-192h192v192z" fill="none"></path><path d="M0,192v-192h192v192z" fill="none"></path></g></svg>