<svg xmlns="http://www.w3.org/2000/svg" x="0px" y="0px"
width="192mm" height="192mm"
viewBox="0 0 192 192"
style=" fill:#b1b1b1;"><g transform=""><g fill="none" fill-rule="nonzero" stroke="none" stroke-width="1" stroke-linecap="butt" stroke-linejoin="miter" stroke-miterlimit="10" stroke-dasharray="" stroke-dashoffset="0" font-family="none" font-weight="normal" font-size="none" text-anchor="inherit" style="mix-blend-mode: normal"><path d="M0,192v-192h192v192z" fill="none"></path><path d="" fill="#b1b1b1"></path><g fill="#b1b1b1"><path d="M151.56188,25.95499h-112.21594c-4.19258,0 -8.16192,1.88352 -10.8128,5.13434l-22.62317,27.7575c-4.29024,5.26688 -4.16467,12.85677 0.29299,17.97715l78.94739,90.61824c5.72032,6.56442 15.91226,6.58534 21.66048,0.04186l79.45664,-90.49267c4.60416,-5.24595 4.62509,-13.08698 0.04883,-18.35386l-24.22067,-27.8761c-2.65088,-3.05549 -6.49466,-4.80646 -10.53376,-4.80646zM175.66396,67.64356c-6.68998,7.71546 -13.38694,13.43578 -20.07693,21.54886c-8.72,-11.74758 -18.89798,-16.8889 -31.25946,-16.8889c-13.08698,-0.73248 -26.89248,0 -39.97946,-0.73248c-9.45248,-1.47194 -26.89946,-5.87379 -26.89946,-13.952c0,-8.81069 15.98899,-15.41696 23.26496,-16.8889c2.60205,-0.4953 5.28083,-0.73946 7.93869,-0.82317h3.25779c8.03635,0.19533 15.58438,1.98118 20.056,4.49254c11.63597,5.87379 14.54496,15.33325 16.72147,23.41146c10.17798,0 19.89555,0 30.07354,0c0,-5.5529 -0.30694,-14.62867 -0.30694,-19.74906zM27.64719,79.64228c-2.07885,-2.44858 -4.32512,-4.72275 -6.57837,-6.99693l-4.34605,-4.98784l22.62317,-27.75053h10.45702c-20.13274,10.40819 -26.43206,28.93645 -22.15578,39.7353zM141.77455,39.9907c-2.18349,2.9369 -5.0855,5.87379 -7.26899,8.81069c-2.18349,-2.9369 -5.0855,-5.87379 -9.45248,-8.81069c5.09248,0 10.90349,0 16.72147,0zM43.21762,98.07287c22.3232,1.49286 48.75526,4.34605 72.38995,5.06458c2.90899,0 16.72147,2.20442 17.44698,8.81069c-1.45101,9.54317 -31.98496,12.48006 -39.25395,8.07821c-5.03667,-5.81798 -23.60678,-10.88256 -36.67283,-5.98541zM74.89564,133.24587c14.42637,5.82496 31.69197,5.14131 43.32096,0.11162l-22.21856,25.30893l-4.29722,-4.93203c-5.6087,-6.84346 -11.00813,-13.47066 -16.80518,-20.48851z"></path></g><path d="M0,192v-192h192v192z" fill="none"></path><path d="M0,192v-192h192v192z" fill="none"></path><path d="" fill="none"></path><path d="M0,192v-192h192v192z" fill="none"></path><path d="M0,192v-192h192v192z" fill="none"></path><path d="M0,192v-192h192v192z" fill="none"></path><path d="M0,192v-192h192v192z" fill="none"></path><path d="M0,192v-192h192v192z" fill="none"></path><path d="M0,192v-192h192v192z" fill="none"></path><path d="M0,192v-192h192v192z" fill="none"></path><path d="M0,192v-192h192v192z" fill="none"></path><path d="M0,192v-192h192v192z" fill="none"></path><path d="M0,192v-192h192v192z" fill="none"></path><path d="M0,192v-192h192v192z" fill="none"></path><path d="M0,192v-192h192v192z" fill="none"></path><path d="M0,192v-192h192v192z" fill="none"></path><path d="M0,192v-192h192v192z" fill="none"></path><path d="M0,192v-192h192v192z" fill="none"></path><path d="M0,192v-192h192v192z" fill="none"></path><path d="M0,192v-192h192v192z" fill="none"></path><path d="M0,192v-192h192v192z" fill="none"></path><path d="M0,192v-192h192v192z" fill="none"></path><path d="M0,192v-192h192v192z" fill="none"></path><path d="M0,192v-192h192v192z" fill="none"></path><path d="M0,192v-192h192v192z" fill="none"></path><path d="M0,192v-192h192v192z" fill="none"></path><path d="M0,192v-192h192v192z" fill="none"></path></g></g></svg>