<svg xmlns="http://www.w3.org/2000/svg" x="0px" y="0px"
width="192mm" height="192mm"
viewBox="0 0 192 192"
style=" fill:#b1b1b1;"><g fill="none" fill-rule="nonzero" stroke="none" stroke-width="1" stroke-linecap="butt" stroke-linejoin="miter" stroke-miterlimit="10" stroke-dasharray="" stroke-dashoffset="0" font-family="none" font-weight="normal" font-size="none" text-anchor="inherit" style="mix-blend-mode: normal"><path d="M0,192v-192h192v192z" fill="none"></path><path d="" fill="#000000"></path><g fill="#b1b1b1"><path d="M17.152,17.152c-7.92064,0 -14.336,6.41536 -14.336,14.336v28.672v114.688h186.368v-129.024v-14.336c0,-7.92064 -6.41536,-14.336 -14.336,-14.336zM17.152,60.16h157.696v100.352h-157.696zM103.406,74.398c-3.40867,-0.10291 -6.418,2.20971 -7.196,5.53l-14.336,57.344c-0.62098,2.48613 0.13179,5.11468 1.97466,6.8952c1.84287,1.78052 4.49577,2.44241 6.95906,1.73627c2.46329,-0.70615 4.36261,-2.67301 4.98227,-5.15946l14.336,-57.344c0.56059,-2.11541 0.12421,-4.37102 -1.18492,-6.1247c-1.30913,-1.75368 -3.34759,-2.81334 -5.53508,-2.8773zM60.02,81.58c-2.36269,0.06512 -4.54144,1.29066 -5.824,3.276l-16.982,25.48l16.982,25.48c1.4016,2.17549 3.86693,3.42668 6.45031,3.27361c2.58337,-0.15307 4.88371,-1.68662 6.0186,-4.01241c1.1349,-2.32578 0.92816,-5.0827 -0.54091,-7.21321l-11.69,-17.528l11.69,-17.528c1.52864,-2.2229 1.67987,-5.11578 0.39135,-7.48595c-1.28852,-2.37017 -3.79859,-3.81626 -6.49535,-3.74206zM131.756,81.58c-2.65658,0.01062 -5.08947,1.4895 -6.32193,3.84292c-1.23246,2.35342 -1.06239,5.19544 0.44193,7.38509l11.69,17.528l-11.69,17.528c-1.46909,2.13051 -1.67584,4.88744 -0.54094,7.21323c1.1349,2.32579 3.43524,3.85935 6.01862,4.01242c2.58338,0.15306 5.04872,-1.09813 6.45032,-3.27364l16.982,-25.48l-16.982,-25.48c-1.32628,-2.05101 -3.60555,-3.28562 -6.048,-3.276z"></path></g><path d="M0,192v-192h192v192z" fill="none"></path><path d="M0,192v-192h192v192z" fill="none"></path><path d="M0,192v-192h192v192z" fill="none"></path><path d="M0,192v-192h192v192z" fill="none"></path><path d="M0,192v-192h192v192z" fill="none"></path><path d="M0,192v-192h192v192z" fill="none"></path><path d="M0,192v-192h192v192z" fill="none"></path><path d="M0,192v-192h192v192z" fill="none"></path><path d="M0,192v-192h192v192z" fill="none"></path><path d="M0,192v-192h192v192z" fill="none"></path><path d="M0,192v-192h192v192z" fill="none"></path><path d="M0,192v-192h192v192z" fill="none"></path><path d="M0,192v-192h192v192z" fill="none"></path><path d="M0,192v-192h192v192z" fill="none"></path><path d="M0,192v-192h192v192z" fill="none"></path><path d="M0,192v-192h192v192z" fill="none"></path><path d="M0,192v-192h192v192z" fill="none"></path><path d="M0,192v-192h192v192z" fill="none"></path><path d="M0,192v-192h192v192z" fill="none"></path><path d="M0,192v-192h192v192z" fill="none"></path><path d="M0,192v-192h192v192z" fill="none"></path><path d="M0,192v-192h192v192z" fill="none"></path><path d="M0,192v-192h192v192z" fill="none"></path><path d="M0,192v-192h192v192z" fill="none"></path><path d="M0,192v-192h192v192z" fill="none"></path><path d="M0,192v-192h192v192z" fill="none"></path><path d="M0,192v-192h192v192z" fill="none"></path><path d="M0,192v-192h192v192z" fill="none"></path><path d="M0,192v-192h192v192z" fill="none"></path><path d="M0,192v-192h192v192z" fill="none"></path><path d="M0,192v-192h192v192z" fill="none"></path><path d="M0,192v-192h192v192z" fill="none"></path><path d="M0,192v-192h192v192z" fill="none"></path><path d="M0,192v-192h192v192z" fill="none"></path><path d="M0,192v-192h192v192z" fill="none"></path><path d="M0,192v-192h192v192z" fill="none"></path><path d="M0,192v-192h192v192z" fill="none"></path><path d="M0,192v-192h192v192z" fill="none"></path></g></svg>