<svg xmlns="http://www.w3.org/2000/svg" x="0px" y="0px"
width="192mm" height="192mm"
viewBox="0 0 192 192"
style=" fill:#b1b1b1;"><g fill="none" fill-rule="nonzero" stroke="none" stroke-width="1" stroke-linecap="butt" stroke-linejoin="miter" stroke-miterlimit="10" stroke-dasharray="" stroke-dashoffset="0" font-family="none" font-weight="normal" font-size="none" text-anchor="inherit" style="mix-blend-mode: normal"><path d="M0,192v-192h192v192z" fill="none"></path><path d="" fill="#b1b1b1"></path><g fill="#b1b1b1"><g id="surface1"><path d="M52.48783,2.2488c-1.9239,0 -3.6729,1.431 -4.0704,3.3072c-0.3975,1.8921 0.6519,3.8001 2.4168,4.5792c0.159,0.0636 15.7092,7.0755 33.8352,26.076c8.1249,8.5224 16.6791,19.8114 10.9392,25.44c-0.1272,0.1431 -0.8109,0.9222 -3.3072,3.4344c-0.2385,0.2385 -0.318,0.4134 -0.5088,0.636l-0.1272,0.1272l31.164,31.164l2.9256,-2.7984c0.0636,-0.0636 0.0795,-0.1908 0.1272,-0.2544l4.5792,-4.5792c0.2067,0.2067 1.3356,1.3356 5.724,5.724c1.6536,1.6536 1.2561,5.7399 0.7632,6.7416c-1.5264,3.0528 -1.2402,6.2646 0.7632,8.268c0.795,0.795 14.1192,14.1192 14.1192,14.1192c2.1942,2.1942 5.1198,3.3072 8.0136,3.3072c2.8938,0 5.6922,-1.113 7.8864,-3.3072l22.5144,-22.3872c4.4043,-4.3884 4.3884,-11.6229 0,-16.0272l-14.1192,-14.1192c-2.0511,-2.0511 -5.1357,-2.4804 -7.7592,-1.1448c-1.2402,0.6201 -5.5809,1.0335 -7.1232,-0.5088l-5.8512,-5.8512c1.3356,-1.8921 2.0511,-4.134 2.0352,-6.4872c0.0159,-3.0369 -1.1607,-5.883 -3.3072,-8.0136l-15.264,-15.264c-0.0795,-0.0795 -0.3498,-0.2544 -0.5088,-0.3816l-3.18,-3.18c-6.6462,-6.6462 -12.7995,-12.9267 -14.3736,-14.5008c-13.4832,-13.4991 -62.7414,-14.1033 -68.3064,-14.1192zM85.94143,71.5728l-79.6272,79.6272c-4.3884,4.3884 -4.3884,11.4957 0,15.9l15.264,15.264c2.1942,2.1942 5.1198,3.3072 8.0136,3.3072c2.8938,0 5.6922,-1.113 7.8864,-3.3072l79.6272,-79.5z"></path></g></g><path d="M0,192v-192h192v192z" fill="none"></path><path d="M3.84,188.16v-184.32h184.32v184.32z" fill="none"></path><path d="M0,192v-192h192v192z" fill="none"></path><path d="M0,192v-192h192v192z" fill="none"></path><path d="M0,192v-192h192v192z" fill="none"></path><path d="M0,192v-192h192v192z" fill="none"></path><path d="M0,192v-192h192v192z" fill="none"></path><path d="M0,192v-192h192v192z" fill="none"></path><path d="M0,192v-192h192v192z" fill="none"></path><path d="M0,192v-192h192v192z" fill="none"></path><path d="M0,192v-192h192v192z" fill="none"></path><path d="M0,192v-192h192v192z" fill="none"></path><path d="M0,192v-192h192v192z" fill="none"></path><path d="M0,192v-192h192v192z" fill="none"></path><path d="M0,192v-192h192v192z" fill="none"></path><path d="M0,192v-192h192v192z" fill="none"></path><path d="M0,192v-192h192v192z" fill="none"></path><path d="M0,192v-192h192v192z" fill="none"></path><path d="M0,192v-192h192v192z" fill="none"></path><path d="M0,192v-192h192v192z" fill="none"></path><path d="M0,192v-192h192v192z" fill="none"></path><path d="M0,192v-192h192v192z" fill="none"></path><path d="M0,192v-192h192v192z" fill="none"></path><path d="M0,192v-192h192v192z" fill="none"></path><path d="M0,192v-192h192v192z" fill="none"></path><path d="M0,192v-192h192v192z" fill="none"></path><path d="M0,192v-192h192v192z" fill="none"></path><path d="M0,192v-192h192v192z" fill="none"></path><path d="M0,192v-192h192v192z" fill="none"></path><path d="M0,192v-192h192v192z" fill="none"></path><path d="M0,192v-192h192v192z" fill="none"></path><path d="M0,192v-192h192v192z" fill="none"></path><path d="M0,192v-192h192v192z" fill="none"></path><path d="M0,192v-192h192v192z" fill="none"></path><path d="M0,192v-192h192v192z" fill="none"></path><path d="M0,192v-192h192v192z" fill="none"></path><path d="M0,192v-192h192v192z" fill="none"></path><path d="M0,192v-192h192v192z" fill="none"></path><path d="M0,192v-192h192v192z" fill="none"></path><path d="M0,192v-192h192v192z" fill="none"></path></g></svg>