<svg xmlns="http://www.w3.org/2000/svg" x="0px" y="0px"
width="192mm" height="192mm"
viewBox="0 0 192 192"
style=" fill:#b1b1b1;"><g fill="none" fill-rule="nonzero" stroke="none" stroke-width="1" stroke-linecap="butt" stroke-linejoin="miter" stroke-miterlimit="10" stroke-dasharray="" stroke-dashoffset="0" font-family="none" font-weight="normal" font-size="none" text-anchor="inherit" style="mix-blend-mode: normal"><path d="M0,192v-192h192v192z" fill="none"></path><path d="" fill="#b1b1b1"></path><g fill="#b1b1b1"><path d="M32.94068,67.46999c0,-41.17721 19.97966,-62.14391 59.29422,-62.14391c33.74254,0 54.27145,16.49317 54.27145,43.68462c0,15.06833 -8.40579,28.39341 -21.73087,34.07687v2.07757c22.82139,5.34914 34.28383,20.20254 34.28383,44.44878c0,29.15757 -18.88914,47.50543 -49.13723,47.50543c-16.81157,0 -31.11574,-8.07942 -36.24995,-20.5289h-2.07757v55.69629h-38.65388zM119.52983,124.80605c0,-15.61757 -9.71919,-24.02335 -28.05909,-24.02335h-7.75306v-27.19144h7.20382c12.99076,0 21.18163,-7.31526 21.18163,-19.00058c0,-12.44948 -7.31526,-19.76474 -19.43838,-19.76474c-13.86636,0 -21.29307,8.74011 -21.29307,25.4482v54.49433c0,21.29307 8.73215,31.9993 25.7666,31.9993c13.54796,-0.01592 22.39155,-8.63663 22.39155,-21.96171z"></path></g><path d="M0,192v-192h192v192z" fill="none"></path><path d="M0,192v-192h192v192z" fill="none"></path><path d="M0,192v-192h192v192z" fill="none"></path><path d="M0,192v-192h192v192z" fill="none"></path><path d="M0,192v-192h192v192z" fill="none"></path><path d="M0,192v-192h192v192z" fill="none"></path><path d="M0,192v-192h192v192z" fill="none"></path><path d="M0,192v-192h192v192z" fill="none"></path><path d="M0,192v-192h192v192z" fill="none"></path><path d="M0,192v-192h192v192z" fill="none"></path><path d="M0,192v-192h192v192z" fill="none"></path><path d="M0,192v-192h192v192z" fill="none"></path><path d="M0,192v-192h192v192z" fill="none"></path><path d="M0,192v-192h192v192z" fill="none"></path><path d="M0,192v-192h192v192z" fill="none"></path><path d="M0,192v-192h192v192z" fill="none"></path><path d="M0,192v-192h192v192z" fill="none"></path><path d="M0,192v-192h192v192z" fill="none"></path><path d="M0,192v-192h192v192z" fill="none"></path><path d="M0,192v-192h192v192z" fill="none"></path><path d="M0,192v-192h192v192z" fill="none"></path><path d="M0,192v-192h192v192z" fill="none"></path><path d="M0,192v-192h192v192z" fill="none"></path><path d="M0,192v-192h192v192z" fill="none"></path><path d="M0,192v-192h192v192z" fill="none"></path><path d="M0,192v-192h192v192z" fill="none"></path><path d="M0,192v-192h192v192z" fill="none"></path><path d="M0,192v-192h192v192z" fill="none"></path><path d="M0,192v-192h192v192z" fill="none"></path><path d="M0,192v-192h192v192z" fill="none"></path><path d="M0,192v-192h192v192z" fill="none"></path><path d="M0,192v-192h192v192z" fill="none"></path><path d="M0,192v-192h192v192z" fill="none"></path><path d="M0,192v-192h192v192z" fill="none"></path><path d="M0,192v-192h192v192z" fill="none"></path><path d="M0,192v-192h192v192z" fill="none"></path><path d="M0,192v-192h192v192z" fill="none"></path><path d="M0,192v-192h192v192z" fill="none"></path></g></svg>