<svg xmlns="http://www.w3.org/2000/svg" x="0px" y="0px"
width="90" height="90"
viewBox="0 0 192 192"
style=" fill:#b1b1b1;"><g fill="none" fill-rule="nonzero" stroke="none" stroke-width="1" stroke-linecap="butt" stroke-linejoin="miter" stroke-miterlimit="10" stroke-dasharray="" stroke-dashoffset="0" font-family="none" font-weight="none" font-size="none" text-anchor="none" style="mix-blend-mode: normal"><path d="M0,192v-192h192v192z" fill="none"></path><path d="" fill="#000000"></path><g fill="#b1b1b1"><path d="M3.58656,101.62688c0,-51.08992 24.11136,-81.9392 64.14464,-81.9392c22.23872,0 38.31296,10.90432 45.92,31.27936h2.72384v-28.84224h50.65984v106.33728c0,13.19808 3.15392,17.36448 13.34144,17.36448c2.58048,0 6.17344,-0.57344 8.03712,-1.29024v35.87584c-4.44416,1.57696 -15.78752,2.8672 -24.82816,2.8672c-23.2512,0 -37.02272,-7.46368 -42.76608,-24.11136l-1.86368,-4.59648h-2.72384c-6.03008,17.93792 -24.6848,29.7024 -46.92352,29.7024c-41.6192,0.00896 -65.7216,-30.41024 -65.7216,-82.64704zM115.37152,102.05696c0,-25.68832 -11.76448,-42.47936 -29.84576,-42.47936c-18.368,0 -29.98912,16.36096 -29.98912,42.336c0,26.1184 11.3344,42.47936 29.41568,42.47936c18.65472,0 30.4192,-16.36096 30.4192,-42.336z"></path></g><path d="M0,192v-192h192v192z" fill="none"></path><path d="M0,192v-192h192v192z" fill="none"></path><path d="M0,192v-192h192v192z" fill="none"></path><path d="M0,192v-192h192v192z" fill="none"></path><path d="M0,192v-192h192v192z" fill="none"></path><path d="M0,192v-192h192v192z" fill="none"></path><path d="M0,192v-192h192v192z" fill="none"></path><path d="M0,192v-192h192v192z" fill="none"></path><path d="M0,192v-192h192v192z" fill="none"></path><path d="M0,192v-192h192v192z" fill="none"></path><path d="M0,192v-192h192v192z" fill="none"></path><path d="M0,192v-192h192v192z" fill="none"></path><path d="M0,192v-192h192v192z" fill="none"></path><path d="M0,192v-192h192v192z" fill="none"></path><path d="M0,192v-192h192v192z" fill="none"></path><path d="M0,192v-192h192v192z" fill="none"></path><path d="M0,192v-192h192v192z" fill="none"></path><path d="M0,192v-192h192v192z" fill="none"></path><path d="M0,192v-192h192v192z" fill="none"></path><path d="M0,192v-192h192v192z" fill="none"></path><path d="M0,192v-192h192v192z" fill="none"></path><path d="M0,192v-192h192v192z" fill="none"></path><path d="M0,192v-192h192v192z" fill="none"></path><path d="M0,192v-192h192v192z" fill="none"></path><path d="M0,192v-192h192v192z" fill="none"></path><path d="M0,192v-192h192v192z" fill="none"></path><path d="M0,192v-192h192v192z" fill="none"></path><path d="M0,192v-192h192v192z" fill="none"></path><path d="M0,192v-192h192v192z" fill="none"></path><path d="M0,192v-192h192v192z" fill="none"></path></g></svg>