<svg xmlns="http://www.w3.org/2000/svg" x="0px" y="0px"
width="90" height="90"
viewBox="0 0 192 192"
style=" fill:#b1b1b1;"><g fill="none" fill-rule="nonzero" stroke="none" stroke-width="1" stroke-linecap="butt" stroke-linejoin="miter" stroke-miterlimit="10" stroke-dasharray="" stroke-dashoffset="0" font-family="none" font-weight="none" font-size="none" text-anchor="none" style="mix-blend-mode: normal"><path d="M0,192v-192h192v192z" fill="none"></path><path d="" fill="#000000"></path><g fill="#b1b1b1"><path d="M48.768,3.008c-8.69856,0 -15.744,7.04544 -15.744,15.744v7.872h39.36v-7.872c0,-8.69856 -7.04544,-15.744 -15.744,-15.744zM135.36,3.008c-8.69856,0 -15.744,7.04544 -15.744,15.744v7.872h39.36v-7.872c0,-8.69856 -7.04544,-15.744 -15.744,-15.744zM17.28,42.368c-8.69856,0 -15.744,7.04544 -15.744,15.744v102.336c0,8.69856 7.04544,15.744 15.744,15.744h157.44c8.69856,0 15.744,-7.04544 15.744,-15.744v-102.336c0,-8.69856 -7.04544,-15.744 -15.744,-15.744z"></path></g><path d="M0,192v-192h192v192z" fill="none"></path><path d="M0,192v-192h192v192z" fill="none"></path><path d="M0,192v-192h192v192z" fill="none"></path><path d="M0,192v-192h192v192z" fill="none"></path><path d="M0,192v-192h192v192z" fill="none"></path><path d="M0,192v-192h192v192z" fill="none"></path><path d="M0,192v-192h192v192z" fill="none"></path><path d="M0,192v-192h192v192z" fill="none"></path><path d="M0,192v-192h192v192z" fill="none"></path><path d="M0,192v-192h192v192z" fill="none"></path><path d="M0,192v-192h192v192z" fill="none"></path><path d="M0,192v-192h192v192z" fill="none"></path><path d="M0,192v-192h192v192z" fill="none"></path><path d="M0,192v-192h192v192z" fill="none"></path><path d="M0,192v-192h192v192z" fill="none"></path><path d="M0,192v-192h192v192z" fill="none"></path></g></svg>