<svg xmlns="http://www.w3.org/2000/svg" x="0px" y="0px"
width="192mm" height="192mm"
viewBox="0 0 192 192"
style=" fill:#b1b1b1;"><g fill="none" fill-rule="nonzero" stroke="none" stroke-width="1" stroke-linecap="butt" stroke-linejoin="miter" stroke-miterlimit="10" stroke-dasharray="" stroke-dashoffset="0" font-family="none" font-weight="normal" font-size="none" text-anchor="inherit" style="mix-blend-mode: normal"><path d="M0,192v-192h192v192z" fill="none"></path><path d="" fill="#b1b1b1"></path><g fill="#b1b1b1"><path d="M95.89792,0.00004c-12.32156,0.05839 -22.29791,10.06506 -22.29791,22.4c0,6.98133 3.22245,12.34555 6.66458,17.60208c3.1808,4.85333 -0.81281,11.2168 -6.57708,10.5c-17.01653,-2.1056 -34.24166,-5.36667 -34.24166,-5.36667l-0.01458,0.01458c-1.03937,-0.22911 -2.10026,-0.34644 -3.16458,-0.35c-8.24745,0 -14.93333,6.68588 -14.93333,14.93333v36.03541c0,6.79467 7.51508,11.01648 13.22708,7.33542c5.47307,-3.53173 11.16803,-6.62982 18.75416,-5.93542c9.37066,0.8512 17.5819,7.8351 19.6875,17.00416c3.34507,14.672 -7.70502,27.69374 -21.80208,27.69374c-6.496,0 -11.59526,-2.79872 -16.50833,-5.96458c-5.77173,-3.7184 -13.35833,0.37147 -13.35833,7.23333v17.89374c0,11.5136 6.68267,18.17083 14.93333,18.17083h59.73332h59.73332c8.25066,0 14.93333,-6.68267 14.93333,-14.93333v-104.53331c0,-8.24745 -6.68588,-14.93333 -14.93333,-14.93333c-1.05944,0.0046 -2.11539,0.12192 -3.15,0.35l-0.02916,-0.01458c0,0 -17.22513,3.26107 -34.24166,5.36667c-5.7792,0.7168 -9.74365,-5.66802 -6.54791,-10.54375c3.7856,-5.7792 7.29493,-11.71135 6.53333,-19.76041c-0.88107,-9.3408 -7.86497,-17.50933 -17.00416,-19.6c-1.834,-0.42 -3.63561,-0.60626 -5.39583,-0.59792z"></path></g><path d="M0,192v-192h192v192z" fill="none"></path><path d="M0,192v-192h192v192z" fill="none"></path><path d="M0,192v-192h192v192z" fill="none"></path><path d="M0,192v-192h192v192z" fill="none"></path><path d="M0,192v-192h192v192z" fill="none"></path><path d="M0,192v-192h192v192z" fill="none"></path><path d="M0,192v-192h192v192z" fill="none"></path><path d="M0,192v-192h192v192z" fill="none"></path><path d="M0,192v-192h192v192z" fill="none"></path><path d="M0,192v-192h192v192z" fill="none"></path><path d="M0,192v-192h192v192z" fill="none"></path><path d="M0,192v-192h192v192z" fill="none"></path><path d="M0,192v-192h192v192z" fill="none"></path><path d="M0,192v-192h192v192z" fill="none"></path><path d="M0,192v-192h192v192z" fill="none"></path><path d="M0,192v-192h192v192z" fill="none"></path><path d="M0,192v-192h192v192z" fill="none"></path><path d="M0,192v-192h192v192z" fill="none"></path><path d="M0,192v-192h192v192z" fill="none"></path><path d="M0,192v-192h192v192z" fill="none"></path><path d="M0,192v-192h192v192z" fill="none"></path><path d="M0,192v-192h192v192z" fill="none"></path><path d="M0,192v-192h192v192z" fill="none"></path><path d="M0,192v-192h192v192z" fill="none"></path><path d="M0,192v-192h192v192z" fill="none"></path><path d="M0,192v-192h192v192z" fill="none"></path><path d="M0,192v-192h192v192z" fill="none"></path><path d="M0,192v-192h192v192z" fill="none"></path><path d="M0,192v-192h192v192z" fill="none"></path><path d="M0,192v-192h192v192z" fill="none"></path></g></svg>