<svg xmlns="http://www.w3.org/2000/svg" x="0px" y="0px"
width="192mm" height="192mm"
viewBox="0 0 192 192"
style=" fill:#b1b1b1;"><g fill="none" fill-rule="nonzero" stroke="none" stroke-width="1" stroke-linecap="butt" stroke-linejoin="miter" stroke-miterlimit="10" stroke-dasharray="" stroke-dashoffset="0" font-family="none" font-weight="normal" font-size="none" text-anchor="inherit" style="mix-blend-mode: normal"><path d="M0,192v-192h192v192z" fill="none"></path><path d="" fill="#b1b1b1"></path><g fill="#b1b1b1"><path d="M18.56,25.6c-7.7792,0 -14.08,6.3008 -14.08,14.08v112.64c0,7.7792 6.3008,14.08 14.08,14.08h154.88c7.7792,0 14.08,-6.3008 14.08,-14.08v-112.64c0,-7.7792 -6.3008,-14.08 -14.08,-14.08zM32.64,39.68c3.88608,0 7.04,3.15392 7.04,7.04c0,3.88608 -3.15392,7.04 -7.04,7.04c-3.88608,0 -7.04,-3.15392 -7.04,-7.04c0,-3.88608 3.15392,-7.04 7.04,-7.04zM60.8,39.68h28.16v112.64h-28.16zM103.04,39.68h28.16v112.64h-28.16zM145.28,39.68h28.16v112.64h-28.16zM74.88,53.76c-3.88808,0 -7.04,3.15192 -7.04,7.04c0,3.88808 3.15192,7.04 7.04,7.04c3.88808,0 7.04,-3.15192 7.04,-7.04c0,-3.88808 -3.15192,-7.04 -7.04,-7.04zM117.12,53.76c-3.88808,0 -7.04,3.15192 -7.04,7.04c0,3.88808 3.15192,7.04 7.04,7.04c3.88808,0 7.04,-3.15192 7.04,-7.04c0,-3.88808 -3.15192,-7.04 -7.04,-7.04zM159.36,53.76c-3.88808,0 -7.04,3.15192 -7.04,7.04c0,3.88808 3.15192,7.04 7.04,7.04c3.88808,0 7.04,-3.15192 7.04,-7.04c0,-3.88808 -3.15192,-7.04 -7.04,-7.04zM32.64,67.84c3.88608,0 7.04,3.15392 7.04,7.04c0,3.88608 -3.15392,7.04 -7.04,7.04c-3.88608,0 -7.04,-3.15392 -7.04,-7.04c0,-3.88608 3.15392,-7.04 7.04,-7.04zM32.64,138.24c3.88608,0 7.04,3.15392 7.04,7.04c0,3.88608 -3.15392,7.04 -7.04,7.04c-3.88608,0 -7.04,-3.15392 -7.04,-7.04c0,-3.88608 3.15392,-7.04 7.04,-7.04z"></path></g><path d="M0,192v-192h192v192z" fill="none"></path><path d="M0,192v-192h192v192z" fill="none"></path><path d="M0,192v-192h192v192z" fill="none"></path><path d="M0,192v-192h192v192z" fill="none"></path><path d="M0,192v-192h192v192z" fill="none"></path><path d="M0,192v-192h192v192z" fill="none"></path><path d="M0,192v-192h192v192z" fill="none"></path><path d="M0,192v-192h192v192z" fill="none"></path><path d="M0,192v-192h192v192z" fill="none"></path><path d="M0,192v-192h192v192z" fill="none"></path><path d="M0,192v-192h192v192z" fill="none"></path><path d="M0,192v-192h192v192z" fill="none"></path><path d="M0,192v-192h192v192z" fill="none"></path><path d="M0,192v-192h192v192z" fill="none"></path><path d="M0,192v-192h192v192z" fill="none"></path><path d="M0,192v-192h192v192z" fill="none"></path><path d="M0,192v-192h192v192z" fill="none"></path><path d="M0,192v-192h192v192z" fill="none"></path><path d="M0,192v-192h192v192z" fill="none"></path><path d="M0,192v-192h192v192z" fill="none"></path><path d="M0,192v-192h192v192z" fill="none"></path><path d="M0,192v-192h192v192z" fill="none"></path><path d="M0,192v-192h192v192z" fill="none"></path><path d="M0,192v-192h192v192z" fill="none"></path><path d="M0,192v-192h192v192z" fill="none"></path><path d="M0,192v-192h192v192z" fill="none"></path><path d="M0,192v-192h192v192z" fill="none"></path><path d="M0,192v-192h192v192z" fill="none"></path><path d="M0,192v-192h192v192z" fill="none"></path><path d="M0,192v-192h192v192z" fill="none"></path><path d="M0,192v-192h192v192z" fill="none"></path><path d="M0,192v-192h192v192z" fill="none"></path></g></svg>