<svg xmlns="http://www.w3.org/2000/svg" x="0px" y="0px"
width="90" height="90"
viewBox="0 0 192 192"
style=" fill:#b1b1b1;"><g fill="none" fill-rule="nonzero" stroke="none" stroke-width="1" stroke-linecap="butt" stroke-linejoin="miter" stroke-miterlimit="10" stroke-dasharray="" stroke-dashoffset="0" font-family="none" font-weight="none" font-size="none" text-anchor="none" style="mix-blend-mode: normal"><path d="M0,192v-192h192v192z" fill="none"></path><path d="" fill="#b1b1b1"></path><path d="M0,192v-192h192v192z" fill="none"></path><path d="M0,192v-192h192v192z" fill="none"></path><path d="M0,192v-192h192v192z" fill="none"></path><path d="M0,192v-192h192v192z" fill="none"></path><path d="M0,192v-192h192v192z" fill="none"></path><path d="M0,192v-192h192v192z" fill="none"></path><path d="M0,192v-192h192v192z" fill="none"></path><path d="M0,192v-192h192v192z" fill="none"></path><path d="M0,192v-192h192v192z" fill="none"></path><path d="M0,192v-192h192v192z" fill="none"></path><path d="M0,192v-192h192v192z" fill="none"></path><path d="M0,192v-192h192v192z" fill="none"></path><path d="M0,192v-192h192v192z" fill="none"></path><path d="M0,192v-192h192v192z" fill="none"></path><path d="M0,192v-192h192v192z" fill="none"></path><path d="M0,192v-192h192v192z" fill="none"></path><path d="M0,192v-192h192v192z" fill="none"></path><path d="M0,192v-192h192v192z" fill="none"></path><path d="M0,192v-192h192v192z" fill="none"></path><path d="M0,192v-192h192v192z" fill="none"></path><path d="M0,192v-192h192v192z" fill="none"></path><path d="M0,192v-192h192v192z" fill="none"></path><path d="M0,192v-192h192v192z" fill="none"></path><path d="M0,192v-192h192v192z" fill="none"></path><path d="M0,192v-192h192v192z" fill="none"></path><path d="M0,192v-192h192v192z" fill="none"></path><path d="M0,192v-192h192v192z" fill="none"></path><path d="M0,192v-192h192v192z" fill="none"></path><path d="M0,192v-192h192v192z" fill="none"></path><path d="M0,192v-192h192v192z" fill="none"></path><path d="M0,192v-192h192v192z" fill="none"></path><path d="M0,192v-192h192v192z" fill="none"></path><path d="M0,192v-192h192v192z" fill="none"></path><path d="M0,192v-192h192v192z" fill="none"></path><path d="M0,192v-192h192v192z" fill="none"></path><path d="M0,192v-192h192v192z" fill="none"></path><path d="M0,192v-192h192v192z" fill="none"></path><path d="M0,192v-192h192v192z" fill="none"></path><path d="M0,192v-192h192v192z" fill="none"></path><path d="M0,192v-192h192v192z" fill="none"></path><path d="M0,192v-192h192v192z" fill="none"></path><path d="M0,192v-192h192v192z" fill="none"></path><path d="M0,192v-192h192v192z" fill="none"></path><path d="M0,192v-192h192v192z" fill="none"></path><path d="M0,192v-192h192v192z" fill="none"></path><path d="M0,192v-192h192v192z" fill="none"></path><path d="M0,192v-192h192v192z" fill="none"></path><path d="M0,192v-192h192v192z" fill="none"></path><path d="M0,192v-192h192v192z" fill="none"></path><path d="M0,192v-192h192v192z" fill="none"></path><path d="M0,192v-192h192v192z" fill="none"></path><path d="M0,192v-192h192v192z" fill="none"></path><path d="M0,192v-192h192v192z" fill="none"></path><path d="M0,192v-192h192v192z" fill="none"></path><path d="M0,192v-192h192v192z" fill="none"></path><path d="M0,192v-192h192v192z" fill="none"></path><path d="M0,192v-192h192v192z" fill="none"></path><path d="M0,192v-192h192v192z" fill="none"></path><path d="M0,192v-192h192v192z" fill="none"></path><path d="M0,192v-192h192v192z" fill="none"></path><path d="M0,192v-192h192v192z" fill="none"></path><path d="M0,192v-192h192v192z" fill="none"></path><path d="M0,192v-192h192v192z" fill="none"></path><path d="M0,192v-192h192v192z" fill="none"></path><path d="M0,192v-192h192v192z" fill="none"></path><path d="M0,192v-192h192v192z" fill="none"></path><path d="M0,192v-192h192v192z" fill="none"></path><path d="M0,192v-192h192v192z" fill="none"></path><path d="M0,192v-192h192v192z" fill="none"></path><path d="M0,192v-192h192v192z" fill="none"></path><path d="M0,192v-192h192v192z" fill="none"></path><path d="M0,192v-192h192v192z" fill="none"></path><path d="M0,192v-192h192v192z" fill="none"></path><path d="M0,192v-192h192v192z" fill="none"></path><path d="M0,192v-192h192v192z" fill="none"></path><path d="M0,192v-192h192v192z" fill="none"></path><path d="M0,192v-192h192v192z" fill="none"></path><path d="M0,192v-192h192v192z" fill="none"></path><path d="M0,192v-192h192v192z" fill="none"></path><path d="M0,192v-192h192v192z" fill="none"></path><path d="M0,192v-192h192v192z" fill="none"></path><path d="M0,192v-192h192v192z" fill="none"></path><path d="M0,192v-192h192v192z" fill="none"></path><path d="M0,192v-192h192v192z" fill="none"></path><path d="M0,192v-192h192v192z" fill="none"></path><path d="M0,192v-192h192v192z" fill="none"></path><path d="M0,192v-192h192v192z" fill="none"></path><path d="M0,192v-192h192v192z" fill="none"></path><path d="M0,192v-192h192v192z" fill="none"></path><path d="M0,192v-192h192v192z" fill="none"></path><path d="M0,192v-192h192v192z" fill="none"></path><path d="M0,192v-192h192v192z" fill="none"></path><path d="M0,192v-192h192v192z" fill="none"></path><path d="M0,192v-192h192v192z" fill="none"></path><path d="M0,192v-192h192v192z" fill="none"></path><path d="M0,192v-192h192v192z" fill="none"></path><path d="M0,192v-192h192v192z" fill="none"></path><path d="M0,192v-192h192v192z" fill="none"></path><path d="M0,192v-192h192v192z" fill="none"></path><path d="M0,192v-192h192v192z" fill="none"></path><path d="M0,192v-192h192v192z" fill="none"></path><path d="M0,192v-192h192v192z" fill="none"></path><path d="M0,192v-192h192v192z" fill="none"></path><path d="M0,192v-192h192v192z" fill="none"></path><path d="M0,192v-192h192v192z" fill="none"></path><path d="M0,192v-192h192v192z" fill="none"></path><g fill="#b1b1b1"><path d="M96,2.816c-1.81902,0.00568 -3.56909,0.69663 -4.90137,1.93512c-0.05238,0.04165 -0.10418,0.08403 -0.15538,0.12712l-78.88812,64.523c-0.09112,0.0685 -0.1806,0.13915 -0.26837,0.21188l-0.26838,0.226v0.01412c-1.46619,1.3659 -2.29993,3.27891 -2.30238,5.28275c0,3.99412 3.23788,7.232 7.232,7.232h7.232v79.552c0,7.99136 6.47264,14.464 14.464,14.464h115.712c7.99136,0 14.464,-6.47264 14.464,-14.464v-79.552h7.232c3.99412,0 7.232,-3.23788 7.232,-7.232c-0.00244,-2.00384 -0.83618,-3.91685 -2.30237,-5.28275c0,-0.00471 0,-0.00942 0,-0.01412l-0.113,-0.08475c-0.15865,-0.14379 -0.3236,-0.28047 -0.49438,-0.40962l-11.55425,-9.44963v-28.15112c0,-3.99206 -3.23994,-7.232 -7.232,-7.232h-7.232c-3.99206,0 -7.232,3.23994 -7.232,7.232v10.41012l-45.62375,-37.31825l-0.09888,-0.08475c-1.33228,-1.23849 -3.08236,-1.92945 -4.90137,-1.93512zM38.144,89.6h115.712v28.928h-115.712zM59.84,96.832c-3.99412,0 -7.232,3.23788 -7.232,7.232c0,3.99412 3.23788,7.232 7.232,7.232c3.99412,0 7.232,-3.23788 7.232,-7.232c0,-3.99412 -3.23788,-7.232 -7.232,-7.232zM38.144,132.992h115.712v28.928h-115.712zM59.84,140.224c-3.99412,0 -7.232,3.23788 -7.232,7.232c0,3.99412 3.23788,7.232 7.232,7.232c3.99412,0 7.232,-3.23788 7.232,-7.232c0,-3.99412 -3.23788,-7.232 -7.232,-7.232z"></path></g><path d="M0,192v-192h192v192z" fill="none"></path><path d="M0,192v-192h192v192z" fill="none"></path><path d="M0,192v-192h192v192z" fill="none"></path><path d="M0,192v-192h192v192z" fill="none"></path><path d="M0,192v-192h192v192z" fill="none"></path><path d="M0,192v-192h192v192z" fill="none"></path><path d="M0,192v-192h192v192z" fill="none"></path><path d="M0,192v-192h192v192z" fill="none"></path><path d="M0,192v-192h192v192z" fill="none"></path><path d="M0,192v-192h192v192z" fill="none"></path><path d="M0,192v-192h192v192z" fill="none"></path><path d="M0,192v-192h192v192z" fill="none"></path><path d="M0,192v-192h192v192z" fill="none"></path><path d="M0,192v-192h192v192z" fill="none"></path><path d="M0,192v-192h192v192z" fill="none"></path><path d="M0,192v-192h192v192z" fill="none"></path><path d="M0,192v-192h192v192z" fill="none"></path><path d="M0,192v-192h192v192z" fill="none"></path></g></svg>