<svg xmlns="http://www.w3.org/2000/svg" x="0px" y="0px"
width="30" height="30"
viewBox="0 0 192 192"
style=" fill:#b1b1b1;"><g fill="none" fill-rule="nonzero" stroke="none" stroke-width="1" stroke-linecap="butt" stroke-linejoin="miter" stroke-miterlimit="10" stroke-dasharray="" stroke-dashoffset="0" font-family="none" font-weight="none" font-size="none" text-anchor="none" style="mix-blend-mode: normal"><path d="M0,192v-192h192v192z" fill="none"></path><path d="" fill="#b1b1b1"></path><g fill="#b1b1b1"><path d="M96,15.8705c-18.73804,0 -31.11928,5.81132 -38.564,14.942c-5.8815,-4.37482 -13.09407,-7.006 -20.956,-7.006c-19.6416,0 -35.712,16.0704 -35.712,35.712c0,19.6416 16.0704,35.712 35.712,35.712c7.85647,0 15.04572,-2.66847 20.925,-7.037c3.0976,3.80881 7.04237,7.04561 11.966,9.517c-12.00664,4.53661 -28.923,14.98758 -28.923,28.3805c0,4.8489 3.9706,8.8195 8.8195,8.8195c4.8489,0 8.8195,-3.9706 8.8195,-8.8195c0,-4.00077 3.33031,-7.32162 7.3315,-10.8035c-0.7353,3.69419 -1.1625,8.00268 -1.1625,13.175c0,14.51916 3.11186,23.77667 8.215,29.5585c-13.40901,1.67252 -17.8715,14.37617 -17.8715,17.4685c0,3.30931 3.71356,7.04456 16.554,7.0525c11.5945,0 20.708,-1.24756 20.708,-6.2155c0,-2.72094 -0.86975,-6.61551 -2.8055,-10.1525c2.23619,0.30564 4.54865,0.4805 6.944,0.4805c2.39535,0 4.70781,-0.17486 6.944,-0.4805c-1.93575,3.537 -2.8055,7.43156 -2.8055,10.1525c0,4.96794 9.1135,6.2155 20.708,6.2155c12.84045,-0.00794 16.554,-3.74319 16.554,-7.0525c0,-3.09233 -4.46249,-15.79598 -17.8715,-17.4685c5.10313,-5.78183 8.215,-15.03934 8.215,-29.5585c0,-5.17232 -0.42719,-9.48081 -1.1625,-13.175c4.00119,3.48086 7.3315,6.80273 7.3315,10.8035c0,4.8489 3.9706,8.8195 8.8195,8.8195c4.8489,0 8.8195,-3.9706 8.8195,-8.8195c0,-13.39292 -16.91636,-23.84389 -28.923,-28.3805c4.90904,-2.46407 8.84147,-5.6919 11.935,-9.486c5.8815,4.37482 13.09407,7.006 20.956,7.006c19.6416,0 35.712,-16.0704 35.712,-35.712c0,-19.6416 -16.0704,-35.712 -35.712,-35.712c-7.86193,0 -15.0745,2.63118 -20.956,7.006c-7.44472,-9.13068 -19.82596,-14.942 -38.564,-14.942zM96,31.7425c21.65734,0 31.744,8.82483 31.744,27.776c0,18.95117 -10.08666,27.776 -31.744,27.776c-21.65734,0 -31.744,-8.82483 -31.744,-27.776c0,-18.95117 10.08666,-27.776 31.744,-27.776zM76.16,39.6785c-2.19034,0 -3.968,1.77766 -3.968,3.968c0,2.19034 1.77766,3.968 3.968,3.968h7.936c2.19034,0 3.968,-1.77766 3.968,-3.968c0,-2.19034 -1.77766,-3.968 -3.968,-3.968zM107.904,39.6785c-2.19034,0 -3.968,1.77766 -3.968,3.968c0,2.19034 1.77766,3.968 3.968,3.968h7.936c2.19034,0 3.968,-1.77766 3.968,-3.968c0,-2.19034 -1.77766,-3.968 -3.968,-3.968zM80.128,55.5505c-4.3648,0 -7.936,3.5712 -7.936,7.936c0,4.3648 3.5712,7.936 7.936,7.936c4.3648,0 7.936,-3.5712 7.936,-7.936c0,-1.16659 -0.28371,-2.25506 -0.744,-3.255c-0.47616,0.47616 -1.15866,0.7595 -1.984,0.7595c-1.63482,0 -2.7125,-1.09318 -2.7125,-2.728c0,-0.81741 0.26784,-1.49234 0.744,-1.9685c-0.992,-0.45235 -2.07291,-0.744 -3.2395,-0.744zM111.872,55.5505c-4.3648,0 -7.936,3.5712 -7.936,7.936c0,4.3648 3.5712,7.936 7.936,7.936c4.3648,0 7.936,-3.5712 7.936,-7.936c0,-1.16659 -0.28371,-2.25506 -0.744,-3.255c-0.47616,0.47616 -1.15866,0.7595 -1.984,0.7595c-1.63482,0 -2.7125,-1.09318 -2.7125,-2.728c0,-0.81741 0.26784,-1.49234 0.744,-1.9685c-0.992,-0.45235 -2.07291,-0.744 -3.2395,-0.744zM96,71.4225l-7.936,7.936h15.872zM87.6455,102.686c2.64934,0.27898 5.39557,0.4805 8.3545,0.4805c2.95893,0 5.70516,-0.20152 8.3545,-0.4805c4.02765,6.26931 7.5175,15.48992 7.5175,23.932c0,14.43558 -6.98368,16.2285 -15.872,16.2285c-8.88832,0 -15.872,-1.80085 -15.872,-16.2285c0,-8.43744 3.48986,-17.66124 7.5175,-23.932z"></path></g><path d="M0,192v-192h192v192z" fill="none"></path><path d="M0,192v-192h192v192z" fill="none"></path><path d="M0,192v-192h192v192z" fill="none"></path><path d="M0,192v-192h192v192z" fill="none"></path><path d="M0,192v-192h192v192z" fill="none"></path><path d="M0,192v-192h192v192z" fill="none"></path><path d="M0,192v-192h192v192z" fill="none"></path><path d="M0,192v-192h192v192z" fill="none"></path><path d="M0,192v-192h192v192z" fill="none"></path><path d="M0,192v-192h192v192z" fill="none"></path><path d="M0,192v-192h192v192z" fill="none"></path><path d="M0,192v-192h192v192z" fill="none"></path><path d="M0,192v-192h192v192z" fill="none"></path><path d="M0,192v-192h192v192z" fill="none"></path><path d="M0,192v-192h192v192z" fill="none"></path><path d="M0,192v-192h192v192z" fill="none"></path><path d="M0,192v-192h192v192z" fill="none"></path><path d="M0,192v-192h192v192z" fill="none"></path><path d="M0,192v-192h192v192z" fill="none"></path><path d="M0,192v-192h192v192z" fill="none"></path><path d="M0,192v-192h192v192z" fill="none"></path><path d="M0,192v-192h192v192z" fill="none"></path><path d="M0,192v-192h192v192z" fill="none"></path><path d="M0,192v-192h192v192z" fill="none"></path><path d="M0,192v-192h192v192z" fill="none"></path><path d="M0,192v-192h192v192z" fill="none"></path><path d="M0,192v-192h192v192z" fill="none"></path><path d="M0,192v-192h192v192z" fill="none"></path><path d="M0,192v-192h192v192z" fill="none"></path><path d="M0,192v-192h192v192z" fill="none"></path><path d="M0,192v-192h192v192z" fill="none"></path><path d="M0,192v-192h192v192z" fill="none"></path><path d="M0,192v-192h192v192z" fill="none"></path><path d="M0,192v-192h192v192z" fill="none"></path><path d="M0,192v-192h192v192z" fill="none"></path><path d="M0,192v-192h192v192z" fill="none"></path><path d="M0,192v-192h192v192z" fill="none"></path><path d="M0,192v-192h192v192z" fill="none"></path><path d="M0,192v-192h192v192z" fill="none"></path><path d="M0,192v-192h192v192z" fill="none"></path></g></svg>