<svg xmlns="http://www.w3.org/2000/svg" x="0px" y="0px"
width="90" height="90"
viewBox="0 0 192 192"
style=" fill:#b1b1b1;"><g fill="none" fill-rule="nonzero" stroke="none" stroke-width="1" stroke-linecap="butt" stroke-linejoin="miter" stroke-miterlimit="10" stroke-dasharray="" stroke-dashoffset="0" font-family="none" font-weight="none" font-size="none" text-anchor="none" style="mix-blend-mode: normal"><path d="M0,192v-192h192v192z" fill="none"></path><path d="" fill="#b1b1b1"></path><path d="M0,192v-192h192v192z" fill="none"></path><path d="M3.84,188.16v-184.32h184.32v184.32z" fill="none"></path><path d="M0,192v-192h192v192z" fill="none"></path><path d="M0,192v-192h192v192z" fill="none"></path><path d="M0,192v-192h192v192z" fill="none"></path><path d="M0,192v-192h192v192z" fill="none"></path><path d="M0,192v-192h192v192z" fill="none"></path><path d="M0,192v-192h192v192z" fill="none"></path><path d="M0,192v-192h192v192z" fill="none"></path><path d="M0,192v-192h192v192z" fill="none"></path><path d="M0,192v-192h192v192z" fill="none"></path><path d="M0,192v-192h192v192z" fill="none"></path><path d="M0,192v-192h192v192z" fill="none"></path><path d="M0,192v-192h192v192z" fill="none"></path><path d="M0,192v-192h192v192z" fill="none"></path><path d="M0,192v-192h192v192z" fill="none"></path><path d="M0,192v-192h192v192z" fill="none"></path><path d="M0,192v-192h192v192z" fill="none"></path><path d="M0,192v-192h192v192z" fill="none"></path><path d="M0,192v-192h192v192z" fill="none"></path><path d="M0,192v-192h192v192z" fill="none"></path><path d="M0,192v-192h192v192z" fill="none"></path><path d="M0,192v-192h192v192z" fill="none"></path><path d="M0,192v-192h192v192z" fill="none"></path><path d="M0,192v-192h192v192z" fill="none"></path><path d="M0,192v-192h192v192z" fill="none"></path><path d="M0,192v-192h192v192z" fill="none"></path><path d="M0,192v-192h192v192z" fill="none"></path><path d="M0,192v-192h192v192z" fill="none"></path><path d="M0,192v-192h192v192z" fill="none"></path><path d="M0,192v-192h192v192z" fill="none"></path><path d="M0,192v-192h192v192z" fill="none"></path><path d="M0,192v-192h192v192z" fill="none"></path><path d="M0,192v-192h192v192z" fill="none"></path><path d="M0,192v-192h192v192z" fill="none"></path><path d="M0,192v-192h192v192z" fill="none"></path><path d="M0,192v-192h192v192z" fill="none"></path><path d="M0,192v-192h192v192z" fill="none"></path><path d="M0,192v-192h192v192z" fill="none"></path><path d="M0,192v-192h192v192z" fill="none"></path><g fill="#b1b1b1"><path d="M147.57749,1.28002c-1.2996,-0.01201 -2.57921,0.32029 -3.70875,0.96313l-47.82563,27.32687l-9.11375,-10.925c-1.39798,-1.67546 -3.46728,-2.6443 -5.64937,-2.645h-36.8c-4.06465,0.00041 -7.35959,3.29535 -7.36,7.36v36.8h-29.44c-4.06465,0.00041 -7.35959,3.29535 -7.36,7.36v29.44c0.00041,4.06465 3.29535,7.35959 7.36,7.36h110.4c4.06465,-0.00041 7.35959,-3.29535 7.36,-7.36v-29.44c-0.00063,-1.72347 -0.60601,-3.39207 -1.71063,-4.715l-18.1125,-21.735l38.79812,-22.18063l30.94937,61.91313l-32.45875,32.50187c-1.73652,1.39748 -2.74616,3.50663 -2.74563,5.73563c0,4.06482 3.29518,7.36 7.36,7.36h29.44c8.1328,0 14.72,-6.5872 14.72,-14.72v-29.44c0.00012,-0.02396 0.00012,-0.04792 0,-0.07188c0.00017,-0.02875 0.00017,-0.0575 0,-0.08624c0.00017,-0.02875 0.00017,-0.0575 0,-0.08625c-0.00964,-0.21637 -0.02882,-0.4322 -0.0575,-0.64688c0.00002,-0.00958 0.00002,-0.01917 0,-0.02875c-0.02325,-0.16384 -0.05201,-0.32685 -0.08625,-0.48875c-0.08181,-0.43154 -0.20208,-0.8549 -0.35937,-1.265c-0.01883,-0.0385 -0.038,-0.07683 -0.0575,-0.115c-0.06561,-0.17033 -0.13754,-0.33815 -0.21563,-0.50313l-36.8,-73.6c-1.23777,-2.475 -3.75908,-4.04666 -6.52625,-4.06813zM51.83999,30.72002h25.99l30.67625,36.8h-56.66625zM29.75999,119.04002c-16.17238,0 -29.44,13.26762 -29.44,29.44c-0.00114,0.98236 0.19437,1.95501 0.575,2.86063c0.00477,0.00959 0.00956,0.01918 0.01437,0.02875c1.53251,14.76737 13.70051,26.55063 28.85063,26.55063h73.6c15.17553,0 27.36716,-11.81993 28.865,-26.6225c0.37504,-0.89223 0.57043,-1.84966 0.575,-2.8175c0,-16.17238 -13.26762,-29.44 -29.44,-29.44zM29.75999,133.76002h73.6c8.21866,0 14.72,6.50134 14.72,14.72c0,8.21866 -6.50134,14.72 -14.72,14.72h-73.6c-8.21866,0 -14.72,-6.50134 -14.72,-14.72c0,-8.21866 6.50134,-14.72 14.72,-14.72zM37.11999,141.12002c-4.06482,0 -7.36,3.29518 -7.36,7.36c0,4.06482 3.29518,7.36 7.36,7.36c4.06482,0 7.36,-3.29518 7.36,-7.36c0,-4.06482 -3.29518,-7.36 -7.36,-7.36zM66.55999,141.12002c-4.06482,0 -7.36,3.29518 -7.36,7.36c0,4.06482 3.29518,7.36 7.36,7.36c4.06482,0 7.36,-3.29518 7.36,-7.36c0,-4.06482 -3.29518,-7.36 -7.36,-7.36zM95.99999,141.12002c-4.06482,0 -7.36,3.29518 -7.36,7.36c0,4.06482 3.29518,7.36 7.36,7.36c4.06482,0 7.36,-3.29518 7.36,-7.36c0,-4.06482 -3.29518,-7.36 -7.36,-7.36z"></path></g><path d="M0,192v-192h192v192z" fill="none"></path><path d="M0,192v-192h192v192z" fill="none"></path><path d="M0,192v-192h192v192z" fill="none"></path><path d="M0,192v-192h192v192z" fill="none"></path><path d="M0,192v-192h192v192z" fill="none"></path><path d="M0,192v-192h192v192z" fill="none"></path><path d="M0,192v-192h192v192z" fill="none"></path><path d="M0,192v-192h192v192z" fill="none"></path><path d="M0,192v-192h192v192z" fill="none"></path><path d="M0,192v-192h192v192z" fill="none"></path><path d="M0,192v-192h192v192z" fill="none"></path><path d="M0,192v-192h192v192z" fill="none"></path><path d="M0,192v-192h192v192z" fill="none"></path><path d="M0,192v-192h192v192z" fill="none"></path></g></svg>