<svg xmlns="http://www.w3.org/2000/svg" x="0px" y="0px"
width="90" height="90"
viewBox="0 0 192 192"
style=" fill:#b1b1b1;"><g fill="none" fill-rule="none" stroke="none" stroke-width="1" stroke-linecap="butt" stroke-linejoin="miter" stroke-miterlimit="10" stroke-dasharray="" stroke-dashoffset="0" font-family="none" font-weight="none" font-size="none" text-anchor="none" style="mix-blend-mode: normal"><path d="M0,192v-192h192v192z" fill="none" fill-rule="nonzero"></path><path d="" fill="#b1b1b1" fill-rule="nonzero"></path><g fill="#b1b1b1" fill-rule="evenodd"><path d="M115.68,1.536c-6.52138,0 -11.808,5.28662 -11.808,11.808c0,6.52138 5.28662,11.808 11.808,11.808c6.52138,0 11.808,-5.28662 11.808,-11.808c0,-6.52138 -5.28662,-11.808 -11.808,-11.808zM143.232,1.536c-4.34759,0 -7.872,3.52441 -7.872,7.872c0,4.34759 3.52441,7.872 7.872,7.872c4.34759,0 7.872,-3.52441 7.872,-7.872c0,-4.34759 -3.52441,-7.872 -7.872,-7.872zM166.848,5.472c-4.34759,0 -7.872,3.52441 -7.872,7.872c0,4.34759 3.52441,7.872 7.872,7.872c4.34759,0 7.872,-3.52441 7.872,-7.872c0,-4.34759 -3.52441,-7.872 -7.872,-7.872zM184.56,13.344c-3.26069,0 -5.904,2.64331 -5.904,5.904c0,3.26069 2.64331,5.904 5.904,5.904c3.26069,0 5.904,-2.64331 5.904,-5.904c0,-3.26069 -2.64331,-5.904 -5.904,-5.904zM155.04,33.024c-19.56192,0 -35.424,15.86208 -35.424,35.424c0,22.9705 23.616,28.66195 23.616,51.168c0,13.0439 10.5721,23.616 23.616,23.616c13.0439,0 23.616,-10.5721 23.616,-23.616v-51.168c0,-19.56192 -15.86208,-35.424 -35.424,-35.424zM48.768,48.768c-4.34759,0 -7.872,3.52441 -7.872,7.872c0,4.34759 3.52441,7.872 7.872,7.872c4.34759,0 7.872,-3.52441 7.872,-7.872c0,-4.34759 -3.52441,-7.872 -7.872,-7.872zM76.32,48.768c-6.52138,0 -11.808,5.28662 -11.808,11.808c0,6.52138 5.28662,11.808 11.808,11.808c6.52138,0 11.808,-5.28662 11.808,-11.808c0,-6.52138 -5.28662,-11.808 -11.808,-11.808zM25.152,52.704c-4.34759,0 -7.872,3.52441 -7.872,7.872c0,4.34759 3.52441,7.872 7.872,7.872c4.34759,0 7.872,-3.52441 7.872,-7.872c0,-4.34759 -3.52441,-7.872 -7.872,-7.872zM7.44,60.576c-3.26069,0 -5.904,2.64331 -5.904,5.904c0,3.26069 2.64331,5.904 5.904,5.904c3.26069,0 5.904,-2.64331 5.904,-5.904c0,-3.26069 -2.64331,-5.904 -5.904,-5.904zM36.96,80.256c-19.56192,0 -35.424,15.86208 -35.424,35.424v51.168c0,13.0439 10.5721,23.616 23.616,23.616c13.0439,0 23.616,-10.5721 23.616,-23.616c0,-22.50605 23.616,-28.1975 23.616,-51.168c0,-19.56192 -15.86208,-35.424 -35.424,-35.424z"></path></g><path d="M0,192v-192h192v192z" fill="none" fill-rule="nonzero"></path><path d="M0,192v-192h192v192z" fill="none" fill-rule="nonzero"></path><path d="M0,192v-192h192v192z" fill="none" fill-rule="nonzero"></path><path d="M0,192v-192h192v192z" fill="none" fill-rule="nonzero"></path><path d="M0,192v-192h192v192z" fill="none" fill-rule="nonzero"></path><path d="M0,192v-192h192v192z" fill="none" fill-rule="nonzero"></path><path d="M0,192v-192h192v192z" fill="none" fill-rule="nonzero"></path><path d="M0,192v-192h192v192z" fill="none" fill-rule="nonzero"></path><path d="M0,192v-192h192v192z" fill="none" fill-rule="nonzero"></path><path d="M0,192v-192h192v192z" fill="none" fill-rule="nonzero"></path><path d="M0,192v-192h192v192z" fill="none" fill-rule="nonzero"></path><path d="M0,192v-192h192v192z" fill="none" fill-rule="nonzero"></path><path d="M0,192v-192h192v192z" fill="none" fill-rule="nonzero"></path><path d="M0,192v-192h192v192z" fill="none" fill-rule="nonzero"></path><path d="M0,192v-192h192v192z" fill="none" fill-rule="nonzero"></path><path d="M0,192v-192h192v192z" fill="none" fill-rule="nonzero"></path><path d="M0,192v-192h192v192z" fill="none" fill-rule="nonzero"></path><path d="M0,192v-192h192v192z" fill="none" fill-rule="nonzero"></path><path d="M0,192v-192h192v192z" fill="none" fill-rule="nonzero"></path><path d="M0,192v-192h192v192z" fill="none" fill-rule="nonzero"></path><path d="M0,192v-192h192v192z" fill="none" fill-rule="nonzero"></path><path d="M0,192v-192h192v192z" fill="none" fill-rule="nonzero"></path></g></svg>