<svg xmlns="http://www.w3.org/2000/svg" x="0px" y="0px"
width="90" height="90"
viewBox="0 0 192 192"
style=" fill:#b1b1b1;"><g fill="none" fill-rule="nonzero" stroke="none" stroke-width="1" stroke-linecap="butt" stroke-linejoin="miter" stroke-miterlimit="10" stroke-dasharray="" stroke-dashoffset="0" font-family="none" font-weight="none" font-size="none" text-anchor="none" style="mix-blend-mode: normal"><path d="M0,192v-192h192v192z" fill="none"></path><path d="" fill="#b1b1b1"></path><g fill="#b1b1b1"><path d="M19.84,4.608c-8.41568,0 -15.232,6.81632 -15.232,15.232v152.32c0,8.41568 6.81632,15.232 15.232,15.232h76.16c8.41568,0 15.232,-6.81632 15.232,-15.232v-152.32c0,-8.41568 -6.81632,-15.232 -15.232,-15.232zM19.84,19.84h76.16v30.464h-76.16zM42.688,27.456c-4.20403,0 -7.616,3.41197 -7.616,7.616c0,4.20403 3.41197,7.616 7.616,7.616c4.20403,0 7.616,-3.41197 7.616,-7.616c0,-4.20403 -3.41197,-7.616 -7.616,-7.616zM141.696,27.456c-4.20403,0 -7.616,3.41197 -7.616,7.616v30.464c0,4.20403 3.41197,7.616 7.616,7.616h38.08c4.20403,0 7.616,-3.41197 7.616,-7.616v-30.464c0,-4.20403 -3.41197,-7.616 -7.616,-7.616zM19.84,65.536h76.16v30.464h-76.16zM42.688,73.152c-4.20403,0 -7.616,3.41197 -7.616,7.616c0,4.20403 3.41197,7.616 7.616,7.616c4.20403,0 7.616,-3.41197 7.616,-7.616c0,-4.20403 -3.41197,-7.616 -7.616,-7.616zM134.08,88.384c-4.2062,0 -7.616,3.4098 -7.616,7.616c0,4.2062 3.4098,7.616 7.616,7.616c4.2062,0 7.616,-3.4098 7.616,-7.616c0,-4.2062 -3.4098,-7.616 -7.616,-7.616zM57.92,115.04c6.30605,0 11.424,5.11795 11.424,11.424c0,6.30605 -5.11795,11.424 -11.424,11.424c-6.30605,0 -11.424,-5.11795 -11.424,-11.424c0,-6.30605 5.11795,-11.424 11.424,-11.424zM141.696,118.848c-4.20403,0 -7.616,3.41197 -7.616,7.616v30.464c0,4.20403 3.41197,7.616 7.616,7.616h38.08c4.20403,0 7.616,-3.41197 7.616,-7.616v-30.464c0,-4.20403 -3.41197,-7.616 -7.616,-7.616z"></path></g><path d="M0,192v-192h192v192z" fill="none"></path><path d="M0,192v-192h192v192z" fill="none"></path><path d="M0,192v-192h192v192z" fill="none"></path><path d="M0,192v-192h192v192z" fill="none"></path><path d="M0,192v-192h192v192z" fill="none"></path><path d="M0,192v-192h192v192z" fill="none"></path><path d="M0,192v-192h192v192z" fill="none"></path><path d="M0,192v-192h192v192z" fill="none"></path><path d="M0,192v-192h192v192z" fill="none"></path><path d="M0,192v-192h192v192z" fill="none"></path><path d="M0,192v-192h192v192z" fill="none"></path><path d="M0,192v-192h192v192z" fill="none"></path><path d="M0,192v-192h192v192z" fill="none"></path><path d="M0,192v-192h192v192z" fill="none"></path><path d="M0,192v-192h192v192z" fill="none"></path><path d="M0,192v-192h192v192z" fill="none"></path><path d="M0,192v-192h192v192z" fill="none"></path><path d="M0,192v-192h192v192z" fill="none"></path><path d="M0,192v-192h192v192z" fill="none"></path><path d="M0,192v-192h192v192z" fill="none"></path><path d="M0,192v-192h192v192z" fill="none"></path><path d="M0,192v-192h192v192z" fill="none"></path></g></svg>