<svg xmlns="http://www.w3.org/2000/svg" x="0px" y="0px"
width="90" height="90"
viewBox="0 0 192 192"
style=" fill:#666666;"><g fill="none" fill-rule="nonzero" stroke="none" stroke-width="1" stroke-linecap="butt" stroke-linejoin="miter" stroke-miterlimit="10" stroke-dasharray="" stroke-dashoffset="0" font-family="none" font-weight="none" font-size="none" text-anchor="none" style="mix-blend-mode: normal"><path d="M0,192v-192h192v192z" fill="none"></path><path d="" fill="#000000"></path><g fill="#666666"><path d="M59.74801,8.23696c-2.4413,-0.08639 -4.76387,1.05461 -6.18752,3.0397c-1.42365,1.9851 -1.7595,4.55091 -0.89473,6.83555c0,0 5.02637,12.70857 17.71275,20.59125c-2.97376,0.90399 -7.83513,3.38981 -12.29775,10.04625c-2.70281,-0.85129 -5.10004,-1.74021 -6.954,-2.622c-3.2819,-1.56095 -5.33342,-3.04191 -6.498,-4.0185c-1.16458,-0.97658 -1.12575,-1.026 -1.12575,-1.026c-1.37554,-1.86394 -3.55445,-2.96397 -5.871,-2.964h-14.592c-2.6312,-0.03721 -5.07861,1.3452 -6.40507,3.61789c-1.32646,2.27269 -1.32646,5.08354 0,7.35622c1.32646,2.27269 3.77387,3.6551 6.40507,3.61789h11.64225c0.30023,0.27891 0.22955,0.28451 0.57,0.57c2.0981,1.75942 5.21648,3.92645 9.6045,6.0135c8.77604,4.17409 22.56808,8.0085 43.377,8.0085c0.50233,0.00413 1.00373,-0.04362 1.49625,-0.1425c2.11291,0.05047 4.06057,0.1425 6.39825,0.1425c2.25705,0 4.1249,-0.08108 6.17025,-0.12825c0.48367,0.09216 0.97543,0.13513 1.46775,0.12825c20.80892,0 34.60096,-3.83441 43.377,-8.0085c4.38802,-2.08705 7.50639,-4.25409 9.6045,-6.0135c0.34045,-0.28549 0.26977,-0.29109 0.57,-0.57h11.64225c2.6312,0.03721 5.07861,-1.3452 6.40507,-3.61789c1.32646,-2.27269 1.32646,-5.08354 0,-7.35622c-1.32646,-2.27269 -3.77387,-3.6551 -6.40507,-3.61789h-14.592c-2.31655,0.00003 -4.49546,1.10006 -5.871,2.964c0,0 0.03867,0.04939 -1.12574,1.026c-1.16458,0.97658 -3.21611,2.45755 -6.498,4.0185c-1.88928,0.89858 -4.32566,1.80053 -7.09651,2.66475c-4.51849,-6.73969 -9.26982,-9.22983 -12.1125,-10.1175c12.65504,-7.88464 17.67,-20.56275 17.67,-20.56275c0.83262,-2.19979 0.55378,-4.66605 -0.74897,-6.6244c-1.30275,-1.95836 -3.46963,-3.16864 -5.82028,-3.25084c-3.19698,-0.10751 -6.09124,1.87977 -7.13925,4.902c0,0 -3.67549,11.03554 -15.88875,15.31875c-3.76278,-3.0526 -8.5154,-4.9305 -13.737,-4.9305c-5.2176,0 -9.97503,1.87988 -13.737,4.9305c-12.21326,-4.28321 -15.88875,-15.31875 -15.88875,-15.31875c-0.986,-2.84449 -3.61774,-4.79141 -6.62625,-4.902zM30.06526,67.30321c-0.69341,0.02598 -1.37957,0.15074 -2.03775,0.3705l-21.888,7.296c-3.82485,1.27495 -5.89195,5.40915 -4.617,9.234c1.27495,3.82485 5.40915,5.89195 9.234,4.617l19.36575,-6.45525c0.70432,0.34461 2.76367,1.25094 4.5315,2.03775c-2.21064,5.57262 -4.31775,13.22845 -4.31775,22.4865c0,11.11312 2.25174,20.89439 5.79975,29.3835l-4.63125,13.89375l-19.8075,13.20975c-2.21441,1.4266 -3.48799,3.93598 -3.33221,6.56553c0.15578,2.62955 1.71675,4.971 4.08411,6.12616c2.36736,1.15516 5.17355,0.94469 7.3421,-0.55069l21.888,-14.592c1.35117,-0.89899 2.36406,-2.22278 2.8785,-3.762l1.368,-4.11825c12.13536,15.68907 28.10044,23.69775 35.4825,23.69775c5.41363,0 7.296,-4.23168 7.296,-7.296v-65.664c0,-4.03469 3.26861,-7.296 7.296,-7.296c4.02739,0 7.296,3.26131 7.296,7.296v65.664c0,3.06432 1.88237,7.296 7.296,7.296c7.38206,0 23.34714,-8.00868 35.4825,-23.69775l1.368,4.11825c0.51444,1.53922 1.52733,2.86301 2.8785,3.762l21.888,14.592c2.16856,1.49532 4.97471,1.70576 7.34204,0.5506c2.36732,-1.15516 3.92827,-3.49658 4.08407,-6.1261c0.1558,-2.62952 -1.11774,-5.13888 -3.3321,-6.5655l-19.8075,-13.20975l-4.63125,-13.89375c3.54801,-8.48911 5.79975,-18.27038 5.79975,-29.3835c0,-9.25805 -2.10711,-16.91388 -4.31775,-22.4865c1.76783,-0.78681 3.82718,-1.69314 4.5315,-2.03775l19.36575,6.45525c2.47443,0.82544 5.20127,0.26786 7.15307,-1.46264c1.9518,-1.7305 2.83195,-4.37093 2.3088,-6.92641c-0.52314,-2.55548 -2.37007,-4.63764 -4.84488,-5.46195l-21.888,-7.296c-0.69461,-0.23072 -1.41998,-0.35562 -2.15175,-0.3705c-1.18559,-0.02522 -2.35947,0.2389 -3.42,0.7695c0,0 -21.10108,10.23729 -44.061,13.06725c-5.644,0.43532 -11.6603,0.75525 -18.33975,0.75525c-6.67945,0 -12.69576,-0.31994 -18.33975,-0.75525c-22.95992,-2.82995 -44.061,-13.06725 -44.061,-13.06725c-1.09476,-0.54901 -2.31009,-0.81364 -3.534,-0.7695z"></path></g><path d="M0,192v-192h192v192z" fill="none"></path><path d="M0,192v-192h192v192z" fill="none"></path><path d="M0,192v-192h192v192z" fill="none"></path><path d="M0,192v-192h192v192z" fill="none"></path><path d="M0,192v-192h192v192z" fill="none"></path><path d="M0,192v-192h192v192z" fill="none"></path><path d="M0,192v-192h192v192z" fill="none"></path><path d="M0,192v-192h192v192z" fill="none"></path><path d="M0,192v-192h192v192z" fill="none"></path><path d="M0,192v-192h192v192z" fill="none"></path><path d="M0,192v-192h192v192z" fill="none"></path><path d="M0,192v-192h192v192z" fill="none"></path><path d="M0,192v-192h192v192z" fill="none"></path><path d="M0,192v-192h192v192z" fill="none"></path><path d="M0,192v-192h192v192z" fill="none"></path><path d="M0,192v-192h192v192z" fill="none"></path><path d="M0,192v-192h192v192z" fill="none"></path><path d="M0,192v-192h192v192z" fill="none"></path><path d="M0,192v-192h192v192z" fill="none"></path><path d="M0,192v-192h192v192z" fill="none"></path><path d="M0,192v-192h192v192z" fill="none"></path><path d="M0,192v-192h192v192z" fill="none"></path><path d="M0,192v-192h192v192z" fill="none"></path><path d="M0,192v-192h192v192z" fill="none"></path><path d="M0,192v-192h192v192z" fill="none"></path><path d="M0,192v-192h192v192z" fill="none"></path><path d="M0,192v-192h192v192z" fill="none"></path><path d="M0,192v-192h192v192z" fill="none"></path><path d="M0,192v-192h192v192z" fill="none"></path><path d="M0,192v-192h192v192z" fill="none"></path><path d="M0,192v-192h192v192z" fill="none"></path><path d="M0,192v-192h192v192z" fill="none"></path><path d="M0,192v-192h192v192z" fill="none"></path><path d="M0,192v-192h192v192z" fill="none"></path><path d="M0,192v-192h192v192z" fill="none"></path><path d="M0,192v-192h192v192z" fill="none"></path></g></svg>