<svg xmlns="http://www.w3.org/2000/svg" x="0px" y="0px"
width="90" height="90"
viewBox="0 0 192 192"
style=" fill:#666666;"><g fill="none" fill-rule="nonzero" stroke="none" stroke-width="1" stroke-linecap="butt" stroke-linejoin="miter" stroke-miterlimit="10" stroke-dasharray="" stroke-dashoffset="0" font-family="none" font-weight="none" font-size="none" text-anchor="none" style="mix-blend-mode: normal"><path d="M0,192v-192h192v192z" fill="none"></path><path d="" fill="#000000"></path><g fill="#666666"><path d="M96,2.816c-35.13754,0 -56.29747,50.176 -86.016,50.176c-3.95878,0 -7.168,3.20922 -7.168,7.168c0.00186,2.0001 0.83931,3.90846 2.31,5.264c6.63186,10.78324 26.362,30.576 26.362,30.576v18.424v8.82c0,9.07947 4.03577,15.7393 8.176,19.362c2.53156,2.21511 3.62237,2.25387 5.334,2.926c0.32367,0.84762 1.11932,2.68587 2.17,4.84401c3.11862,17.59981 13.58,38.808 48.832,38.808c35.252,0 45.71338,-21.20818 48.832,-38.808c1.05068,-2.15813 1.84633,-3.99639 2.17,-4.84401c1.71163,-0.67214 2.80244,-0.71085 5.334,-2.926c4.14023,-3.6227 8.176,-10.28253 8.176,-19.362v-11.48v-15.764c0,0 19.75383,-19.8104 26.376,-30.59c1.46194,-1.35469 2.29384,-3.2569 2.296,-5.25c0,-3.95878 -3.20922,-7.168 -7.168,-7.168c-29.71853,0 -50.87846,-50.176 -86.016,-50.176zM96,17.152c7.92064,0 14.336,6.41536 14.336,14.336c0,7.92064 -6.41536,14.336 -14.336,14.336c-7.92064,0 -14.336,-6.41536 -14.336,-14.336c0,-7.92064 6.41536,-14.336 14.336,-14.336zM74.846,47.63c0.69586,0.04413 1.39676,0.21448 2.058,0.546l19.096,9.548l19.096,-9.548c2.6665,-1.32608 5.90509,-0.25133 7.224,2.408c1.32608,2.65216 0.24416,5.89075 -2.408,7.224l-11.88601,5.936l11.88601,5.936c2.65932,1.33325 3.72725,4.57184 2.394,7.224c-0.93184,1.89234 -2.83797,2.968 -4.802,2.968c-0.80998,0 -1.63386,-0.17293 -2.408,-0.56l-19.096,-9.548l-19.096,9.548c-0.76698,0.38707 -1.59802,0.56 -2.408,0.56c-1.9712,0 -3.87699,-1.07564 -4.816,-2.968c-1.32608,-2.65216 -0.24416,-5.89076 2.408,-7.224l11.88601,-5.936l-11.88601,-5.936c-2.65933,-1.33325 -3.74124,-4.57184 -2.408,-7.224c0.99994,-1.9945 3.07843,-3.08638 5.166,-2.954zM59.334,96h80.892c3.46588,5.9311 5.95,14.4492 5.95,21.504v5.74c0,5.25654 -1.69583,7.1871 -3.29,8.582c-1.59417,1.3949 -2.744,1.666 -2.744,1.666l-3.822,0.952l-1.246,3.724c0,0 -0.96145,2.71135 -2.898,6.356c-5.63787,4.64727 -11.5267,8.82 -14.672,8.82c-7.168,0 -14.39334,-7.168 -21.504,-7.168c-7.11066,0 -14.336,7.168 -21.504,7.168c-3.1453,0 -9.03413,-4.17274 -14.672,-8.82c-1.93655,-3.64465 -2.898,-6.35599 -2.898,-6.356l-1.246,-3.724l-3.822,-0.952c0,0 -1.14983,-0.27109 -2.744,-1.666c-1.59417,-1.3949 -3.29,-3.32546 -3.29,-8.582v-8.82c0,-9.5962 5.89682,-14.19554 13.51,-18.424zM117.504,103.168c-7.91755,0 -14.336,6.41845 -14.336,14.336c0,7.91755 6.41845,14.336 14.336,14.336c7.91755,0 14.336,-6.41845 14.336,-14.336c0,-7.91755 -6.41845,-14.336 -14.336,-14.336zM74.496,110.336c-3.95878,0 -7.168,3.20922 -7.168,7.168c0,3.95878 3.20922,7.168 7.168,7.168c3.95878,0 7.168,-3.20922 7.168,-7.168c0,-3.95878 -3.20922,-7.168 -7.168,-7.168z"></path></g><path d="M0,192v-192h192v192z" fill="none"></path><path d="M0,192v-192h192v192z" fill="none"></path><path d="M0,192v-192h192v192z" fill="none"></path><path d="M0,192v-192h192v192z" fill="none"></path><path d="M0,192v-192h192v192z" fill="none"></path><path d="M0,192v-192h192v192z" fill="none"></path><path d="M0,192v-192h192v192z" fill="none"></path><path d="M0,192v-192h192v192z" fill="none"></path><path d="M0,192v-192h192v192z" fill="none"></path><path d="M0,192v-192h192v192z" fill="none"></path><path d="M0,192v-192h192v192z" fill="none"></path><path d="M0,192v-192h192v192z" fill="none"></path><path d="M0,192v-192h192v192z" fill="none"></path><path d="M0,192v-192h192v192z" fill="none"></path><path d="M0,192v-192h192v192z" fill="none"></path><path d="M0,192v-192h192v192z" fill="none"></path><path d="M0,192v-192h192v192z" fill="none"></path><path d="M0,192v-192h192v192z" fill="none"></path><path d="M0,192v-192h192v192z" fill="none"></path><path d="M0,192v-192h192v192z" fill="none"></path><path d="M0,192v-192h192v192z" fill="none"></path><path d="M0,192v-192h192v192z" fill="none"></path><path d="M0,192v-192h192v192z" fill="none"></path><path d="M0,192v-192h192v192z" fill="none"></path><path d="M0,192v-192h192v192z" fill="none"></path><path d="M0,192v-192h192v192z" fill="none"></path><path d="M0,192v-192h192v192z" fill="none"></path><path d="M0,192v-192h192v192z" fill="none"></path><path d="M0,192v-192h192v192z" fill="none"></path><path d="M0,192v-192h192v192z" fill="none"></path><path d="M0,192v-192h192v192z" fill="none"></path><path d="M0,192v-192h192v192z" fill="none"></path><path d="M0,192v-192h192v192z" fill="none"></path><path d="M0,192v-192h192v192z" fill="none"></path><path d="M0,192v-192h192v192z" fill="none"></path><path d="M0,192v-192h192v192z" fill="none"></path><path d="M0,192v-192h192v192z" fill="none"></path><path d="M0,192v-192h192v192z" fill="none"></path><path d="M0,192v-192h192v192z" fill="none"></path><path d="M0,192v-192h192v192z" fill="none"></path></g></svg>