<svg xmlns="http://www.w3.org/2000/svg" x="0px" y="0px"
width="90" height="90"
viewBox="0 0 192 192"
style=" fill:#000000;"><g fill="none" fill-rule="nonzero" stroke="none" stroke-width="1" stroke-linecap="butt" stroke-linejoin="miter" stroke-miterlimit="10" stroke-dasharray="" stroke-dashoffset="0" font-family="none" font-weight="none" font-size="none" text-anchor="none" style="mix-blend-mode: normal"><path d="M0,192v-192h192v192z" fill="none"></path><path d="" fill="#000000"></path><g fill="#666666"><path d="M39.68,4.48c-7.7792,0 -14.08,6.3008 -14.08,14.08v98.56c0,7.7792 6.3008,14.08 14.08,14.08h112.64c7.7792,0 14.08,-6.3008 14.08,-14.08v-98.56c0,-7.7792 -6.3008,-14.08 -14.08,-14.08zM110.08,25.6c15.55136,0 28.16,12.60864 28.16,28.16c0,0.42944 -0.10263,0.82885 -0.12375,1.25125c8.25088,2.87232 14.20375,10.63931 14.20375,19.86875c0,11.66528 -9.45472,21.12 -21.12,21.12h-63.36c-11.66528,0 -21.12,-9.45472 -21.12,-21.12c0,-9.26464 6.00655,-17.05209 14.31375,-19.89625c1.13344,-8.624 8.43249,-15.30375 17.36625,-15.30375c2.37248,0 4.62649,0.48191 6.69625,1.33375c4.66048,-9.1168 14.04359,-15.41375 24.98375,-15.41375zM25.6,141.36125v32.07875c0,7.7792 6.3008,14.08 14.08,14.08h112.64c7.7792,0 14.08,-6.3008 14.08,-14.08v-32.07875c-4.16064,2.42176 -8.92672,3.91875 -14.08,3.91875h-112.64c-5.15328,0 -9.91936,-1.49699 -14.08,-3.91875zM145.28,159.36c3.88608,0 7.04,3.15392 7.04,7.04c0,3.88608 -3.15392,7.04 -7.04,7.04c-3.88608,0 -7.04,-3.15392 -7.04,-7.04c0,-3.88608 3.15392,-7.04 7.04,-7.04z"></path></g><path d="M0,192v-192h192v192z" fill="none"></path><path d="M0,192v-192h192v192z" fill="none"></path></g></svg>