<svg xmlns="http://www.w3.org/2000/svg" x="0px" y="0px"
width="90" height="90"
viewBox="0 0 192 192"
style=" fill:#666666;"><g fill="none" fill-rule="nonzero" stroke="none" stroke-width="1" stroke-linecap="butt" stroke-linejoin="miter" stroke-miterlimit="10" stroke-dasharray="" stroke-dashoffset="0" font-family="none" font-weight="none" font-size="none" text-anchor="none" style="mix-blend-mode: normal"><path d="M0,192v-192h192v192z" fill="none"></path><path d="" fill="#666666"></path><path d="M0,192v-192h192v192z" fill="none"></path><path d="M0,192v-192h192v192z" fill="none"></path><path d="M0,192v-192h192v192z" fill="none"></path><path d="M0,192v-192h192v192z" fill="none"></path><path d="M0,192v-192h192v192z" fill="none"></path><path d="M0,192v-192h192v192z" fill="none"></path><path d="M0,192v-192h192v192z" fill="none"></path><path d="M0,192v-192h192v192z" fill="none"></path><path d="M0,192v-192h192v192z" fill="none"></path><path d="M0,192v-192h192v192z" fill="none"></path><path d="M0,192v-192h192v192z" fill="none"></path><path d="M0,192v-192h192v192z" fill="none"></path><path d="M0,192v-192h192v192z" fill="none"></path><path d="M0,192v-192h192v192z" fill="none"></path><path d="M0,192v-192h192v192z" fill="none"></path><path d="M0,192v-192h192v192z" fill="none"></path><path d="M0,192v-192h192v192z" fill="none"></path><path d="M0,192v-192h192v192z" fill="none"></path><path d="M0,192v-192h192v192z" fill="none"></path><path d="M0,192v-192h192v192z" fill="none"></path><path d="M0,192v-192h192v192z" fill="none"></path><path d="M0,192v-192h192v192z" fill="none"></path><path d="M0,192v-192h192v192z" fill="none"></path><path d="M0,192v-192h192v192z" fill="none"></path><path d="M0,192v-192h192v192z" fill="none"></path><path d="M0,192v-192h192v192z" fill="none"></path><g fill="#666666"><path d="M51.15815,1.152c-7.63162,0 -13.98016,5.88502 -14.54925,13.49475l-2.00925,26.74725c15.27053,1.77293 36.64097,3.534 61.389,3.534c24.74803,0 46.11847,-1.76107 61.389,-3.534l-2.00925,-26.74725c-0.56909,-7.60973 -6.91764,-13.49475 -14.54925,-13.49475zM183.5264,52.18125c-0.47516,0.01564 -0.94766,0.07769 -1.41075,0.18525c0,0 -35.74986,7.1535 -86.127,7.1535c-50.37714,0 -86.127,-7.1535 -86.127,-7.1535c-0.47337,-0.09983 -0.95549,-0.15234 -1.43925,-0.15675c-3.77143,-0.02154 -6.93782,2.83459 -7.30395,6.58827c-0.36612,3.75368 2.18868,7.16784 5.8932,7.87548c0,0 8.8907,1.71045 23.313,3.477v13.11c-1.49397,0.40294 -1.62844,0.00685 -3.32025,0.86925c-5.3343,2.71916 -11.27175,9.53215 -11.27175,19.16625c0,9.6341 5.93745,16.44709 11.27175,19.16625c1.69181,0.8624 1.82628,0.46632 3.32025,0.86925v9.1485c0,13.85186 7.66143,27.90585 19.38,39.03075c8.34081,7.91826 19.00871,14.30025 31.05075,17.35651c2.87724,1.26435 6.03943,1.98075 9.39075,1.98075h11.685c3.35132,0 6.51352,-0.7164 9.39075,-1.98075c12.04203,-3.05626 22.70994,-9.43824 31.05075,-17.35651c11.71857,-11.1249 19.38,-25.17888 19.38,-39.03075v-9.1485c1.49397,-0.40296 1.62845,-0.00685 3.32025,-0.86925c5.3343,-2.71916 11.27175,-9.53215 11.27175,-19.16625c0,-9.6341 -5.93745,-16.44709 -11.27175,-19.16625c-1.6918,-0.8624 -1.82628,-0.46632 -3.32025,-0.86925v-13.11c14.4223,-1.76654 23.313,-3.477 23.313,-3.477c3.79754,-0.62465 6.45704,-4.09135 6.0767,-7.92108c-0.38034,-3.82973 -3.66973,-6.70564 -7.51595,-6.57117zM44.91665,71.7465c14.15717,1.31556 31.57448,2.3655 51.072,2.3655c19.49752,0 36.91483,-1.04995 51.072,-2.3655v16.9575c-0.00037,3.97431 3.17996,7.21799 7.1535,7.296c0,0 2.15655,0.14001 4.11825,1.14c1.9617,0.99998 3.32025,1.48264 3.32025,6.156c0,4.67336 -1.35855,5.15602 -3.32025,6.156c-1.9617,0.99998 -4.11825,1.14 -4.11825,1.14c-3.97355,0.07801 -7.15387,3.32169 -7.1535,7.296v14.592c0,8.03614 -5.41813,19.51815 -14.83425,28.45725c-2.16812,2.05828 -4.54436,3.95974 -7.05375,5.7v-17.48475c0,-9.17107 -7.50143,-16.6725 -16.6725,-16.6725h-25.023c-9.16378,0 -16.6725,7.50143 -16.6725,16.6725v17.48475c-2.50939,-1.74026 -4.88563,-3.64172 -7.05375,-5.7c-9.41612,-8.9391 -14.83425,-20.42112 -14.83425,-28.45725v-14.592c0.00037,-3.97431 -3.17996,-7.21799 -7.1535,-7.296c0,0 -2.15655,-0.14001 -4.11825,-1.14c-1.9617,-0.99998 -3.32025,-1.48264 -3.32025,-6.156c0,-4.67336 1.35855,-5.15602 3.32025,-6.156c1.9617,-0.99998 4.11825,-1.14 4.11825,-1.14c3.97354,-0.07801 7.15387,-3.32169 7.1535,-7.296zM44.91665,88.704l5.91375,23.655c0.80986,3.24672 3.73339,5.529 7.08225,5.529h25.08c3.34886,0 6.27239,-2.28228 7.08225,-5.529l2.26575,-9.063h7.296l2.26575,9.063c0.80986,3.24671 3.73339,5.529 7.08225,5.529h25.08c3.34886,0 6.27239,-2.28228 7.08225,-5.529l5.91375,-23.655h-29.184h-21.888zM82.85015,147.072h26.277c4.81536,0 8.7495,3.93414 8.7495,8.7495v4.389l-13.1385,13.12425v-8.74949c0,-4.81536 -3.93414,-8.76375 -8.7495,-8.76375c-4.81536,0 -8.7495,3.94839 -8.7495,8.76375v8.74949l-13.1385,-13.12425v-4.389c0,-4.81536 3.93414,-8.7495 8.7495,-8.7495z"></path></g><path d="M0,192v-192h192v192z" fill="none"></path><path d="M0,192v-192h192v192z" fill="none"></path><path d="M0,192v-192h192v192z" fill="none"></path><path d="M0,192v-192h192v192z" fill="none"></path><path d="M0,192v-192h192v192z" fill="none"></path><path d="M0,192v-192h192v192z" fill="none"></path><path d="M0,192v-192h192v192z" fill="none"></path><path d="M0,192v-192h192v192z" fill="none"></path><path d="M0,192v-192h192v192z" fill="none"></path><path d="M0,192v-192h192v192z" fill="none"></path><path d="M0,192v-192h192v192z" fill="none"></path><path d="M0,192v-192h192v192z" fill="none"></path><path d="M0,192v-192h192v192z" fill="none"></path><path d="M0,192v-192h192v192z" fill="none"></path><path d="M0,192v-192h192v192z" fill="none"></path><path d="M0,192v-192h192v192z" fill="none"></path><path d="M0,192v-192h192v192z" fill="none"></path><path d="M0,192v-192h192v192z" fill="none"></path><path d="M0,192v-192h192v192z" fill="none"></path><path d="M0,192v-192h192v192z" fill="none"></path><path d="M0,192v-192h192v192z" fill="none"></path><path d="M0,192v-192h192v192z" fill="none"></path><path d="M0,192v-192h192v192z" fill="none"></path><path d="M0,192v-192h192v192z" fill="none"></path><path d="M0,192v-192h192v192z" fill="none"></path><path d="M0,192v-192h192v192z" fill="none"></path><path d="M0,192v-192h192v192z" fill="none"></path><path d="M0,192v-192h192v192z" fill="none"></path><path d="M0,192v-192h192v192z" fill="none"></path><path d="M0,192v-192h192v192z" fill="none"></path><path d="M0,192v-192h192v192z" fill="none"></path><path d="M0,192v-192h192v192z" fill="none"></path><path d="M0,192v-192h192v192z" fill="none"></path><path d="M0,192v-192h192v192z" fill="none"></path></g></svg>